<?xml version="1.0" encoding="UTF-8" ?>
<svg version="1.1" width="24" height="32" xmlns="http://www.w3.org/2000/svg" shape-rendering="crispEdges">
<rect x="6" y="2" width="12" height="1" fill="#462400" />
<rect x="3" y="3" width="3" height="1" fill="#462400" />
<rect x="6" y="3" width="1" height="3" fill="#45311B" />
<rect x="7" y="3" width="3" height="3" fill="#4F3316" />
<rect x="10" y="3" width="1" height="3" fill="#45311B" />
<rect x="11" y="3" width="4" height="3" fill="#4F3316" />
<rect x="15" y="3" width="1" height="3" fill="#45311B" />
<rect x="16" y="3" width="2" height="3" fill="#4F3316" />
<rect x="18" y="3" width="3" height="1" fill="#462400" />
<rect x="2" y="4" width="1" height="5" fill="#462400" />
<rect x="3" y="4" width="3" height="1" fill="#4F3316" />
<rect x="18" y="4" width="1" height="1" fill="#4F3316" />
<rect x="19" y="4" width="1" height="1" fill="#45311B" />
<rect x="20" y="4" width="1" height="1" fill="#4F3316" />
<rect x="21" y="4" width="1" height="5" fill="#462400" />
<rect x="3" y="5" width="3" height="1" fill="#462400" />
<rect x="18" y="5" width="3" height="1" fill="#462400" />
<rect x="3" y="6" width="1" height="2" fill="#5E3D1A" />
<rect x="4" y="6" width="1" height="2" fill="#93683B" />
<rect x="5" y="6" width="1" height="3" fill="#45311B" />
<rect x="6" y="6" width="12" height="1" fill="#462400" />
<rect x="18" y="6" width="1" height="3" fill="#45311B" />
<rect x="19" y="6" width="1" height="1" fill="#5E3D1A" />
<rect x="20" y="6" width="1" height="2" fill="#4F3316" />
<rect x="6" y="7" width="1" height="1" fill="#5E3D1A" />
<rect x="7" y="7" width="1" height="2" fill="#93683B" />
<rect x="8" y="7" width="1" height="2" fill="#5E3D1A" />
<rect x="9" y="7" width="1" height="3" fill="#45311B" />
<rect x="10" y="7" width="4" height="3" fill="#5E3D1A" />
<rect x="14" y="7" width="1" height="3" fill="#45311B" />
<rect x="15" y="7" width="2" height="1" fill="#5E3D1A" />
<rect x="17" y="7" width="1" height="2" fill="#4F3316" />
<rect x="19" y="7" width="1" height="1" fill="#4F3316" />
<rect x="3" y="8" width="2" height="1" fill="#433D37" />
<rect x="6" y="8" width="1" height="1" fill="#93683B" />
<rect x="15" y="8" width="1" height="1" fill="#5E3D1A" />
<rect x="16" y="8" width="1" height="1" fill="#4F3316" />
<rect x="19" y="8" width="2" height="1" fill="#433D37" />
<rect x="1" y="9" width="1" height="4" fill="#462400" />
<rect x="2" y="9" width="3" height="1" fill="#635C55" />
<rect x="5" y="9" width="4" height="1" fill="#433D37" />
<rect x="15" y="9" width="4" height="1" fill="#433D37" />
<rect x="19" y="9" width="3" height="1" fill="#635C55" />
<rect x="22" y="9" width="1" height="4" fill="#462400" />
<rect x="2" y="10" width="2" height="1" fill="#433D37" />
<rect x="4" y="10" width="2" height="1" fill="#635C55" />
<rect x="6" y="10" width="3" height="1" fill="#767069" />
<rect x="9" y="10" width="6" height="1" fill="#433D37" />
<rect x="15" y="10" width="5" height="1" fill="#635C55" />
<rect x="20" y="10" width="2" height="1" fill="#433D37" />
<rect x="2" y="11" width="2" height="1" fill="#5E3D1A" />
<rect x="4" y="11" width="4" height="1" fill="#433D37" />
<rect x="8" y="11" width="4" height="1" fill="#767069" />
<rect x="12" y="11" width="4" height="1" fill="#635C55" />
<rect x="16" y="11" width="4" height="1" fill="#433D37" />
<rect x="20" y="11" width="2" height="5" fill="#5E3D1A" />
<rect x="2" y="12" width="1" height="2" fill="#5E3D1A" />
<rect x="3" y="12" width="2" height="1" fill="#93683B" />
<rect x="5" y="12" width="1" height="1" fill="#45311B" />
<rect x="6" y="12" width="2" height="1" fill="#5E3D1A" />
<rect x="8" y="12" width="8" height="1" fill="#433D37" />
<rect x="16" y="12" width="2" height="6" fill="#5E3D1A" />
<rect x="18" y="12" width="1" height="1" fill="#45311B" />
<rect x="19" y="12" width="1" height="1" fill="#5E3D1A" />
<rect x="0" y="13" width="1" height="8" fill="#462400" />
<rect x="1" y="13" width="1" height="8" fill="#5E3D1A" />
<rect x="3" y="13" width="1" height="6" fill="#93683B" />
<rect x="4" y="13" width="1" height="7" fill="#45311B" />
<rect x="5" y="13" width="2" height="1" fill="#5E3D1A" />
<rect x="7" y="13" width="1" height="4" fill="#93683B" />
<rect x="8" y="13" width="1" height="9" fill="#5E3D1A" />
<rect x="9" y="13" width="1" height="10" fill="#45311B" />
<rect x="10" y="13" width="4" height="1" fill="#5E3D1A" />
<rect x="14" y="13" width="1" height="10" fill="#45311B" />
<rect x="15" y="13" width="1" height="8" fill="#5E3D1A" />
<rect x="18" y="13" width="1" height="4" fill="#5E3D1A" />
<rect x="19" y="13" width="1" height="7" fill="#45311B" />
<rect x="22" y="13" width="1" height="2" fill="#5E3D1A" />
<rect x="23" y="13" width="1" height="8" fill="#462400" />
<rect x="2" y="14" width="1" height="4" fill="#93683B" />
<rect x="5" y="14" width="2" height="4" fill="#93683B" />
<rect x="10" y="14" width="1" height="1" fill="#5E3D1A" />
<rect x="11" y="14" width="1" height="2" fill="#93683B" />
<rect x="12" y="14" width="2" height="9" fill="#5E3D1A" />
<rect x="10" y="15" width="1" height="3" fill="#93683B" />
<rect x="22" y="15" width="1" height="6" fill="#4F3316" />
<rect x="11" y="16" width="1" height="7" fill="#5E3D1A" />
<rect x="20" y="16" width="1" height="3" fill="#5E3D1A" />
<rect x="21" y="16" width="1" height="5" fill="#4F3316" />
<rect x="7" y="17" width="1" height="5" fill="#5E3D1A" />
<rect x="18" y="17" width="1" height="3" fill="#4F3316" />
<rect x="2" y="18" width="1" height="3" fill="#5E3D1A" />
<rect x="5" y="18" width="1" height="1" fill="#93683B" />
<rect x="6" y="18" width="1" height="4" fill="#5E3D1A" />
<rect x="10" y="18" width="1" height="5" fill="#5E3D1A" />
<rect x="16" y="18" width="1" height="1" fill="#5E3D1A" />
<rect x="17" y="18" width="1" height="4" fill="#4F3316" />
<rect x="3" y="19" width="1" height="2" fill="#5E3D1A" />
<rect x="5" y="19" width="1" height="1" fill="#5E3D1A" />
<rect x="16" y="19" width="1" height="3" fill="#4F3316" />
<rect x="20" y="19" width="1" height="2" fill="#4F3316" />
<rect x="4" y="20" width="1" height="1" fill="#5E3D1A" />
<rect x="5" y="20" width="1" height="2" fill="#45311B" />
<rect x="18" y="20" width="1" height="2" fill="#45311B" />
<rect x="19" y="20" width="1" height="1" fill="#4F3316" />
<rect x="1" y="21" width="1" height="3" fill="#462400" />
<rect x="2" y="21" width="3" height="1" fill="#433D37" />
<rect x="15" y="21" width="1" height="1" fill="#4F3316" />
<rect x="19" y="21" width="3" height="1" fill="#433D37" />
<rect x="22" y="21" width="1" height="3" fill="#462400" />
<rect x="2" y="22" width="3" height="1" fill="#635C55" />
<rect x="5" y="22" width="4" height="1" fill="#433D37" />
<rect x="15" y="22" width="4" height="1" fill="#433D37" />
<rect x="19" y="22" width="3" height="1" fill="#635C55" />
<rect x="2" y="23" width="2" height="1" fill="#433D37" />
<rect x="4" y="23" width="2" height="1" fill="#635C55" />
<rect x="6" y="23" width="3" height="1" fill="#767069" />
<rect x="9" y="23" width="6" height="1" fill="#433D37" />
<rect x="15" y="23" width="5" height="1" fill="#635C55" />
<rect x="20" y="23" width="2" height="1" fill="#433D37" />
<rect x="2" y="24" width="1" height="5" fill="#462400" />
<rect x="3" y="24" width="1" height="2" fill="#5E3D1A" />
<rect x="4" y="24" width="4" height="1" fill="#433D37" />
<rect x="8" y="24" width="4" height="1" fill="#767069" />
<rect x="12" y="24" width="4" height="1" fill="#635C55" />
<rect x="16" y="24" width="4" height="1" fill="#433D37" />
<rect x="20" y="24" width="1" height="2" fill="#5E3D1A" />
<rect x="21" y="24" width="1" height="5" fill="#462400" />
<rect x="4" y="25" width="1" height="2" fill="#5E3D1A" />
<rect x="5" y="25" width="1" height="4" fill="#45311B" />
<rect x="6" y="25" width="2" height="1" fill="#5E3D1A" />
<rect x="8" y="25" width="8" height="1" fill="#433D37" />
<rect x="16" y="25" width="2" height="1" fill="#5E3D1A" />
<rect x="18" y="25" width="1" height="4" fill="#45311B" />
<rect x="19" y="25" width="1" height="2" fill="#5E3D1A" />
<rect x="3" y="26" width="1" height="3" fill="#4F3316" />
<rect x="6" y="26" width="1" height="4" fill="#4F3316" />
<rect x="7" y="26" width="2" height="1" fill="#5E3D1A" />
<rect x="9" y="26" width="1" height="4" fill="#45311B" />
<rect x="10" y="26" width="4" height="1" fill="#5E3D1A" />
<rect x="14" y="26" width="1" height="4" fill="#45311B" />
<rect x="15" y="26" width="1" height="2" fill="#5E3D1A" />
<rect x="16" y="26" width="2" height="4" fill="#4F3316" />
<rect x="20" y="26" width="1" height="3" fill="#4F3316" />
<rect x="4" y="27" width="1" height="2" fill="#4F3316" />
<rect x="7" y="27" width="1" height="3" fill="#4F3316" />
<rect x="8" y="27" width="1" height="1" fill="#5E3D1A" />
<rect x="10" y="27" width="1" height="3" fill="#4F3316" />
<rect x="11" y="27" width="2" height="1" fill="#5E3D1A" />
<rect x="13" y="27" width="1" height="3" fill="#4F3316" />
<rect x="19" y="27" width="1" height="2" fill="#4F3316" />
<rect x="8" y="28" width="1" height="2" fill="#4F3316" />
<rect x="11" y="28" width="1" height="1" fill="#5E3D1A" />
<rect x="12" y="28" width="1" height="2" fill="#4F3316" />
<rect x="15" y="28" width="1" height="2" fill="#4F3316" />
<rect x="3" y="29" width="3" height="1" fill="#462400" />
<rect x="11" y="29" width="1" height="1" fill="#4F3316" />
<rect x="18" y="29" width="3" height="1" fill="#462400" />
<rect x="6" y="30" width="12" height="1" fill="#462400" />
</svg>