<?xml version="1.0" encoding="UTF-8" ?>
<svg version="1.1" width="24" height="24" xmlns="http://www.w3.org/2000/svg" shape-rendering="crispEdges">
<rect x="9" y="0" width="7" height="1" fill="#55340F" />
<rect x="8" y="1" width="1" height="2" fill="#55340F" />
<rect x="9" y="1" width="7" height="1" fill="#81501D" />
<rect x="16" y="1" width="1" height="2" fill="#55340F" />
<rect x="9" y="2" width="1" height="1" fill="#81501D" />
<rect x="10" y="2" width="3" height="1" fill="#A87034" />
<rect x="13" y="2" width="3" height="3" fill="#81501D" />
<rect x="7" y="3" width="1" height="3" fill="#55340F" />
<rect x="8" y="3" width="1" height="2" fill="#81501D" />
<rect x="9" y="3" width="3" height="1" fill="#A87034" />
<rect x="12" y="3" width="1" height="3" fill="#81501D" />
<rect x="16" y="3" width="1" height="2" fill="#81501D" />
<rect x="17" y="3" width="1" height="6" fill="#55340F" />
<rect x="9" y="4" width="2" height="1" fill="#A87034" />
<rect x="11" y="4" width="1" height="2" fill="#81501D" />
<rect x="6" y="5" width="1" height="1" fill="#55340F" />
<rect x="8" y="5" width="3" height="1" fill="#55340F" />
<rect x="13" y="5" width="4" height="1" fill="#55340F" />
<rect x="4" y="6" width="2" height="1" fill="#55340F" />
<rect x="6" y="6" width="5" height="1" fill="#AC3232" />
<rect x="11" y="6" width="2" height="1" fill="#55340F" />
<rect x="13" y="6" width="4" height="1" fill="#AC3232" />
<rect x="3" y="7" width="1" height="1" fill="#55340F" />
<rect x="4" y="7" width="3" height="1" fill="#AC3232" />
<rect x="7" y="7" width="4" height="1" fill="#55340F" />
<rect x="11" y="7" width="2" height="1" fill="#AC3232" />
<rect x="13" y="7" width="4" height="1" fill="#55340F" />
<rect x="2" y="8" width="1" height="3" fill="#55340F" />
<rect x="3" y="8" width="2" height="1" fill="#AC3232" />
<rect x="5" y="8" width="3" height="1" fill="#55340F" />
<rect x="8" y="8" width="2" height="1" fill="#6F4213" />
<rect x="10" y="8" width="4" height="1" fill="#55340F" />
<rect x="14" y="8" width="3" height="1" fill="#6F4213" />
<rect x="18" y="8" width="1" height="1" fill="#55340F" />
<rect x="3" y="9" width="1" height="2" fill="#AC3232" />
<rect x="4" y="9" width="2" height="2" fill="#55340F" />
<rect x="6" y="9" width="3" height="1" fill="#6F4213" />
<rect x="9" y="9" width="2" height="4" fill="#81501D" />
<rect x="11" y="9" width="4" height="1" fill="#6F4213" />
<rect x="15" y="9" width="3" height="6" fill="#81501D" />
<rect x="18" y="9" width="1" height="1" fill="#6F4213" />
<rect x="19" y="9" width="1" height="5" fill="#55340F" />
<rect x="6" y="10" width="3" height="4" fill="#81501D" />
<rect x="11" y="10" width="4" height="3" fill="#81501D" />
<rect x="18" y="10" width="1" height="11" fill="#81501D" />
<rect x="1" y="11" width="1" height="1" fill="#55340F" />
<rect x="2" y="11" width="1" height="1" fill="#AC3232" />
<rect x="3" y="11" width="1" height="1" fill="#55340F" />
<rect x="5" y="11" width="1" height="2" fill="#55340F" />
<rect x="2" y="12" width="1" height="1" fill="#55340F" />
<rect x="4" y="13" width="1" height="5" fill="#55340F" />
<rect x="5" y="13" width="1" height="8" fill="#81501D" />
<rect x="9" y="13" width="1" height="1" fill="#81501D" />
<rect x="10" y="13" width="4" height="9" fill="#A87034" />
<rect x="14" y="13" width="1" height="1" fill="#81501D" />
<rect x="6" y="14" width="2" height="1" fill="#81501D" />
<rect x="8" y="14" width="2" height="7" fill="#A87034" />
<rect x="14" y="14" width="1" height="7" fill="#A87034" />
<rect x="19" y="14" width="1" height="6" fill="#81501D" />
<rect x="20" y="14" width="1" height="5" fill="#55340F" />
<rect x="6" y="15" width="1" height="1" fill="#81501D" />
<rect x="7" y="15" width="1" height="6" fill="#A87034" />
<rect x="15" y="15" width="1" height="5" fill="#A87034" />
<rect x="16" y="15" width="2" height="2" fill="#81501D" />
<rect x="6" y="16" width="1" height="4" fill="#A87034" />
<rect x="16" y="17" width="1" height="2" fill="#A87034" />
<rect x="17" y="17" width="1" height="4" fill="#81501D" />
<rect x="3" y="18" width="1" height="2" fill="#55340F" />
<rect x="4" y="18" width="1" height="2" fill="#81501D" />
<rect x="16" y="19" width="1" height="2" fill="#81501D" />
<rect x="20" y="19" width="1" height="3" fill="#6F4213" />
<rect x="21" y="19" width="1" height="2" fill="#55340F" />
<rect x="2" y="20" width="1" height="2" fill="#55340F" />
<rect x="3" y="20" width="2" height="2" fill="#6F4213" />
<rect x="6" y="20" width="1" height="1" fill="#81501D" />
<rect x="15" y="20" width="1" height="2" fill="#81501D" />
<rect x="19" y="20" width="1" height="3" fill="#6F4213" />
<rect x="5" y="21" width="2" height="2" fill="#6F4213" />
<rect x="7" y="21" width="3" height="1" fill="#81501D" />
<rect x="14" y="21" width="1" height="1" fill="#81501D" />
<rect x="16" y="21" width="3" height="2" fill="#6F4213" />
<rect x="21" y="21" width="1" height="1" fill="#6F4213" />
<rect x="22" y="21" width="1" height="1" fill="#55340F" />
<rect x="3" y="22" width="2" height="1" fill="#55340F" />
<rect x="7" y="22" width="2" height="1" fill="#6F4213" />
<rect x="9" y="22" width="5" height="1" fill="#81501D" />
<rect x="14" y="22" width="2" height="1" fill="#6F4213" />
<rect x="20" y="22" width="2" height="1" fill="#55340F" />
<rect x="5" y="23" width="15" height="1" fill="#55340F" />
</svg>