<?xml version="1.0" encoding="UTF-8" ?>
<svg version="1.1" width="32" height="32" xmlns="http://www.w3.org/2000/svg" shape-rendering="crispEdges">
<rect x="12" y="3" width="1" height="1" fill="#301001" />
<rect x="14" y="3" width="1" height="1" fill="#301001" />
<rect x="15" y="3" width="1" height="1" fill="#301001" />
<rect x="16" y="3" width="1" height="1" fill="#301001" />
<rect x="17" y="3" width="1" height="1" fill="#301001" />
<rect x="19" y="3" width="1" height="1" fill="#301001" />
<rect x="11" y="4" width="1" height="1" fill="#301001" />
<rect x="12" y="4" width="1" height="1" fill="#FFB795" />
<rect x="13" y="4" width="1" height="1" fill="#301001" />
<rect x="14" y="4" width="1" height="1" fill="#FFB795" />
<rect x="15" y="4" width="1" height="1" fill="#FFB795" />
<rect x="16" y="4" width="1" height="1" fill="#FFB795" />
<rect x="17" y="4" width="1" height="1" fill="#FFB795" />
<rect x="18" y="4" width="1" height="1" fill="#301001" />
<rect x="19" y="4" width="1" height="1" fill="#FFB795" />
<rect x="20" y="4" width="1" height="1" fill="#301001" />
<rect x="11" y="5" width="1" height="1" fill="#301001" />
<rect x="12" y="5" width="1" height="1" fill="#FFB795" />
<rect x="13" y="5" width="1" height="1" fill="#301001" />
<rect x="14" y="5" width="1" height="1" fill="#FFB795" />
<rect x="15" y="5" width="1" height="1" fill="#FFB795" />
<rect x="16" y="5" width="1" height="1" fill="#FFB795" />
<rect x="17" y="5" width="1" height="1" fill="#FFB795" />
<rect x="18" y="5" width="1" height="1" fill="#301001" />
<rect x="19" y="5" width="1" height="1" fill="#FFB795" />
<rect x="20" y="5" width="1" height="1" fill="#301001" />
<rect x="12" y="6" width="1" height="1" fill="#301001" />
<rect x="13" y="6" width="1" height="1" fill="#FFB795" />
<rect x="14" y="6" width="1" height="1" fill="#111111" />
<rect x="15" y="6" width="1" height="1" fill="#FFB795" />
<rect x="16" y="6" width="1" height="1" fill="#FFB795" />
<rect x="17" y="6" width="1" height="1" fill="#111111" />
<rect x="18" y="6" width="1" height="1" fill="#FFB795" />
<rect x="19" y="6" width="1" height="1" fill="#301001" />
<rect x="12" y="7" width="1" height="1" fill="#301001" />
<rect x="13" y="7" width="1" height="1" fill="#FFB795" />
<rect x="14" y="7" width="1" height="1" fill="#FFB795" />
<rect x="15" y="7" width="1" height="1" fill="#FFB795" />
<rect x="16" y="7" width="1" height="1" fill="#FFB795" />
<rect x="17" y="7" width="1" height="1" fill="#FFB795" />
<rect x="18" y="7" width="1" height="1" fill="#FFB795" />
<rect x="19" y="7" width="1" height="1" fill="#301001" />
<rect x="12" y="8" width="1" height="1" fill="#301001" />
<rect x="13" y="8" width="1" height="1" fill="#FFB795" />
<rect x="14" y="8" width="1" height="1" fill="#FFB795" />
<rect x="15" y="8" width="1" height="1" fill="#FFB795" />
<rect x="16" y="8" width="1" height="1" fill="#FFB795" />
<rect x="17" y="8" width="1" height="1" fill="#FFB795" />
<rect x="18" y="8" width="1" height="1" fill="#FFB795" />
<rect x="19" y="8" width="1" height="1" fill="#301001" />
<rect x="13" y="9" width="1" height="1" fill="#301001" />
<rect x="14" y="9" width="1" height="1" fill="#FFB795" />
<rect x="15" y="9" width="1" height="1" fill="#FFB795" />
<rect x="16" y="9" width="1" height="1" fill="#FFB795" />
<rect x="17" y="9" width="1" height="1" fill="#FFB795" />
<rect x="18" y="9" width="1" height="1" fill="#301001" />
<rect x="13" y="10" width="1" height="1" fill="#301001" />
<rect x="14" y="10" width="1" height="1" fill="#FFB795" />
<rect x="15" y="10" width="1" height="1" fill="#FFB795" />
<rect x="16" y="10" width="1" height="1" fill="#FFB795" />
<rect x="17" y="10" width="1" height="1" fill="#FFB795" />
<rect x="18" y="10" width="1" height="1" fill="#301001" />
<rect x="14" y="11" width="1" height="1" fill="#301001" />
<rect x="15" y="11" width="1" height="1" fill="#301001" />
<rect x="16" y="11" width="1" height="1" fill="#301001" />
<rect x="17" y="11" width="1" height="1" fill="#301001" />
</svg>