<?xml version="1.0" encoding="UTF-8" ?>
<svg version="1.1" width="32" height="32" xmlns="http://www.w3.org/2000/svg" shape-rendering="crispEdges">
<rect x="13" y="1" width="1" height="1" fill="#301001" />
<rect x="14" y="1" width="1" height="1" fill="#301001" />
<rect x="15" y="1" width="1" height="1" fill="#301001" />
<rect x="16" y="1" width="1" height="1" fill="#301001" />
<rect x="17" y="1" width="1" height="1" fill="#301001" />
<rect x="18" y="1" width="1" height="1" fill="#301001" />
<rect x="12" y="2" width="1" height="1" fill="#301001" />
<rect x="13" y="2" width="1" height="1" fill="#382B1D" />
<rect x="14" y="2" width="1" height="1" fill="#382B1D" />
<rect x="15" y="2" width="1" height="1" fill="#382B1D" />
<rect x="16" y="2" width="1" height="1" fill="#110900" />
<rect x="17" y="2" width="1" height="1" fill="#110900" />
<rect x="18" y="2" width="1" height="1" fill="#110900" />
<rect x="19" y="2" width="1" height="1" fill="#301001" />
<rect x="12" y="3" width="1" height="1" fill="#301001" />
<rect x="13" y="3" width="1" height="1" fill="#382B1D" />
<rect x="14" y="3" width="1" height="1" fill="#301001" />
<rect x="15" y="3" width="1" height="1" fill="#301001" />
<rect x="16" y="3" width="1" height="1" fill="#301001" />
<rect x="17" y="3" width="1" height="1" fill="#301001" />
<rect x="18" y="3" width="1" height="1" fill="#110900" />
<rect x="19" y="3" width="1" height="1" fill="#301001" />
<rect x="11" y="4" width="1" height="1" fill="#301001" />
<rect x="13" y="4" width="1" height="1" fill="#301001" />
<rect x="18" y="4" width="1" height="1" fill="#301001" />
<rect x="20" y="4" width="1" height="1" fill="#301001" />
<rect x="11" y="5" width="1" height="1" fill="#301001" />
<rect x="20" y="5" width="1" height="1" fill="#301001" />
<rect x="10" y="6" width="1" height="1" fill="#301001" />
<rect x="11" y="6" width="1" height="1" fill="#382B1D" />
<rect x="12" y="6" width="1" height="1" fill="#301001" />
<rect x="19" y="6" width="1" height="1" fill="#301001" />
<rect x="20" y="6" width="1" height="1" fill="#301001" />
<rect x="9" y="7" width="1" height="1" fill="#301001" />
<rect x="10" y="7" width="1" height="1" fill="#382B1D" />
<rect x="11" y="7" width="1" height="1" fill="#110900" />
<rect x="12" y="7" width="1" height="1" fill="#301001" />
<rect x="19" y="7" width="1" height="1" fill="#301001" />
<rect x="20" y="7" width="1" height="1" fill="#382B1D" />
<rect x="21" y="7" width="1" height="1" fill="#301001" />
<rect x="9" y="8" width="1" height="1" fill="#301001" />
<rect x="10" y="8" width="1" height="1" fill="#382B1D" />
<rect x="11" y="8" width="1" height="1" fill="#110900" />
<rect x="12" y="8" width="1" height="1" fill="#301001" />
<rect x="19" y="8" width="1" height="1" fill="#301001" />
<rect x="20" y="8" width="1" height="1" fill="#110900" />
<rect x="21" y="8" width="1" height="1" fill="#382B1D" />
<rect x="22" y="8" width="1" height="1" fill="#301001" />
<rect x="8" y="9" width="1" height="1" fill="#301001" />
<rect x="9" y="9" width="1" height="1" fill="#382B1D" />
<rect x="10" y="9" width="1" height="1" fill="#110900" />
<rect x="11" y="9" width="1" height="1" fill="#110900" />
<rect x="12" y="9" width="1" height="1" fill="#110900" />
<rect x="13" y="9" width="1" height="1" fill="#301001" />
<rect x="18" y="9" width="1" height="1" fill="#301001" />
<rect x="19" y="9" width="1" height="1" fill="#110900" />
<rect x="20" y="9" width="1" height="1" fill="#110900" />
<rect x="21" y="9" width="1" height="1" fill="#110900" />
<rect x="22" y="9" width="1" height="1" fill="#382B1D" />
<rect x="23" y="9" width="1" height="1" fill="#301001" />
<rect x="8" y="10" width="1" height="1" fill="#301001" />
<rect x="9" y="10" width="1" height="1" fill="#382B1D" />
<rect x="10" y="10" width="1" height="1" fill="#110900" />
<rect x="11" y="10" width="1" height="1" fill="#301001" />
<rect x="12" y="10" width="1" height="1" fill="#301001" />
<rect x="13" y="10" width="1" height="1" fill="#301001" />
<rect x="18" y="10" width="1" height="1" fill="#301001" />
<rect x="19" y="10" width="1" height="1" fill="#301001" />
<rect x="20" y="10" width="1" height="1" fill="#301001" />
<rect x="21" y="10" width="1" height="1" fill="#110900" />
<rect x="22" y="10" width="1" height="1" fill="#110900" />
<rect x="23" y="10" width="1" height="1" fill="#110900" />
<rect x="24" y="10" width="1" height="1" fill="#301001" />
<rect x="7" y="11" width="1" height="1" fill="#301001" />
<rect x="8" y="11" width="1" height="1" fill="#382B1D" />
<rect x="9" y="11" width="1" height="1" fill="#301001" />
<rect x="10" y="11" width="1" height="1" fill="#301001" />
<rect x="20" y="11" width="1" height="1" fill="#301001" />
<rect x="21" y="11" width="1" height="1" fill="#110900" />
<rect x="22" y="11" width="1" height="1" fill="#110900" />
<rect x="23" y="11" width="1" height="1" fill="#110900" />
<rect x="24" y="11" width="1" height="1" fill="#301001" />
<rect x="7" y="12" width="1" height="1" fill="#301001" />
<rect x="8" y="12" width="1" height="1" fill="#110900" />
<rect x="9" y="12" width="1" height="1" fill="#301001" />
<rect x="21" y="12" width="1" height="1" fill="#301001" />
<rect x="22" y="12" width="1" height="1" fill="#301001" />
<rect x="23" y="12" width="1" height="1" fill="#110900" />
<rect x="24" y="12" width="1" height="1" fill="#301001" />
<rect x="8" y="13" width="1" height="1" fill="#301001" />
<rect x="22" y="13" width="1" height="1" fill="#301001" />
<rect x="23" y="13" width="1" height="1" fill="#110900" />
<rect x="24" y="13" width="1" height="1" fill="#301001" />
<rect x="22" y="14" width="1" height="1" fill="#301001" />
<rect x="23" y="14" width="1" height="1" fill="#110900" />
<rect x="24" y="14" width="1" height="1" fill="#301001" />
<rect x="22" y="15" width="1" height="1" fill="#301001" />
<rect x="23" y="15" width="1" height="1" fill="#301001" />
</svg>