<?xml version="1.0" encoding="UTF-8" ?>
<svg version="1.1" width="48" height="48" xmlns="http://www.w3.org/2000/svg" shape-rendering="crispEdges">
<rect x="29" y="3" width="1" height="1" fill="#302E2B" />
<rect x="30" y="3" width="1" height="1" fill="#302E2B" />
<rect x="31" y="3" width="1" height="1" fill="#302E2B" />
<rect x="32" y="3" width="1" height="1" fill="#302E2B" />
<rect x="33" y="3" width="1" height="1" fill="#302E2B" />
<rect x="27" y="4" width="1" height="1" fill="#302E2B" />
<rect x="28" y="4" width="1" height="1" fill="#302E2B" />
<rect x="29" y="4" width="1" height="1" fill="#9C8C7C" />
<rect x="30" y="4" width="1" height="1" fill="#9C8C7C" />
<rect x="31" y="4" width="1" height="1" fill="#9C8C7C" />
<rect x="32" y="4" width="1" height="1" fill="#9C8C7C" />
<rect x="33" y="4" width="1" height="1" fill="#302E2B" />
<rect x="34" y="4" width="1" height="1" fill="#302E2B" />
<rect x="26" y="5" width="1" height="1" fill="#302E2B" />
<rect x="27" y="5" width="1" height="1" fill="#302E2B" />
<rect x="28" y="5" width="1" height="1" fill="#9C8C7C" />
<rect x="29" y="5" width="1" height="1" fill="#8F8C88" />
<rect x="30" y="5" width="1" height="1" fill="#8F8C88" />
<rect x="31" y="5" width="1" height="1" fill="#B6ADA3" />
<rect x="32" y="5" width="1" height="1" fill="#B6ADA3" />
<rect x="33" y="5" width="1" height="1" fill="#B6ADA3" />
<rect x="34" y="5" width="1" height="1" fill="#302E2B" />
<rect x="35" y="5" width="1" height="1" fill="#302E2B" />
<rect x="25" y="6" width="1" height="1" fill="#302E2B" />
<rect x="26" y="6" width="1" height="1" fill="#302E2B" />
<rect x="27" y="6" width="1" height="1" fill="#9C8C7C" />
<rect x="28" y="6" width="1" height="1" fill="#8F8C88" />
<rect x="29" y="6" width="1" height="1" fill="#B6ADA3" />
<rect x="30" y="6" width="1" height="1" fill="#B6ADA3" />
<rect x="31" y="6" width="1" height="1" fill="#B6ADA3" />
<rect x="32" y="6" width="1" height="1" fill="#B6ADA3" />
<rect x="33" y="6" width="1" height="1" fill="#B6ADA3" />
<rect x="34" y="6" width="1" height="1" fill="#B6ADA3" />
<rect x="35" y="6" width="1" height="1" fill="#302E2B" />
<rect x="25" y="7" width="1" height="1" fill="#302E2B" />
<rect x="26" y="7" width="1" height="1" fill="#9C8C7C" />
<rect x="27" y="7" width="1" height="1" fill="#8F8C88" />
<rect x="28" y="7" width="1" height="1" fill="#B6ADA3" />
<rect x="29" y="7" width="1" height="1" fill="#B6ADA3" />
<rect x="30" y="7" width="1" height="1" fill="#B6ADA3" />
<rect x="31" y="7" width="1" height="1" fill="#B6ADA3" />
<rect x="32" y="7" width="1" height="1" fill="#B6ADA3" />
<rect x="33" y="7" width="1" height="1" fill="#B6ADA3" />
<rect x="34" y="7" width="1" height="1" fill="#302E2B" />
<rect x="35" y="7" width="1" height="1" fill="#302E2B" />
<rect x="25" y="8" width="1" height="1" fill="#302E2B" />
<rect x="26" y="8" width="1" height="1" fill="#B6ADA3" />
<rect x="27" y="8" width="1" height="1" fill="#B6B2AE" />
<rect x="28" y="8" width="1" height="1" fill="#B6ADA3" />
<rect x="29" y="8" width="1" height="1" fill="#B6B2AE" />
<rect x="30" y="8" width="1" height="1" fill="#B6B2AE" />
<rect x="31" y="8" width="1" height="1" fill="#B6ADA3" />
<rect x="32" y="8" width="1" height="1" fill="#B6ADA3" />
<rect x="33" y="8" width="1" height="1" fill="#B6ADA3" />
<rect x="34" y="8" width="1" height="1" fill="#302E2B" />
<rect x="25" y="9" width="1" height="1" fill="#302E2B" />
<rect x="26" y="9" width="1" height="1" fill="#B6B2AE" />
<rect x="27" y="9" width="1" height="1" fill="#B6B2AE" />
<rect x="28" y="9" width="1" height="1" fill="#B6B2AE" />
<rect x="29" y="9" width="1" height="1" fill="#B6B2AE" />
<rect x="30" y="9" width="1" height="1" fill="#B6B2AE" />
<rect x="31" y="9" width="1" height="1" fill="#B6B2AE" />
<rect x="32" y="9" width="1" height="1" fill="#B6ADA3" />
<rect x="33" y="9" width="1" height="1" fill="#302E2B" />
<rect x="25" y="10" width="1" height="1" fill="#302E2B" />
<rect x="26" y="10" width="1" height="1" fill="#B6B2AE" />
<rect x="27" y="10" width="1" height="1" fill="#B6B2AE" />
<rect x="28" y="10" width="1" height="1" fill="#B6ADA3" />
<rect x="29" y="10" width="1" height="1" fill="#B6B2AE" />
<rect x="30" y="10" width="1" height="1" fill="#B6B2AE" />
<rect x="31" y="10" width="1" height="1" fill="#B6ADA3" />
<rect x="32" y="10" width="1" height="1" fill="#B6ADA3" />
<rect x="33" y="10" width="1" height="1" fill="#302E2B" />
<rect x="36" y="10" width="1" height="1" fill="#302E2B" />
<rect x="37" y="10" width="1" height="1" fill="#302E2B" />
<rect x="25" y="11" width="1" height="1" fill="#302E2B" />
<rect x="26" y="11" width="1" height="1" fill="#B6ADA3" />
<rect x="27" y="11" width="1" height="1" fill="#B6B2AE" />
<rect x="28" y="11" width="1" height="1" fill="#B6B2AE" />
<rect x="29" y="11" width="1" height="1" fill="#B6B2AE" />
<rect x="30" y="11" width="1" height="1" fill="#B6ADA3" />
<rect x="31" y="11" width="1" height="1" fill="#B6B2AE" />
<rect x="32" y="11" width="1" height="1" fill="#B6ADA3" />
<rect x="33" y="11" width="1" height="1" fill="#B6ADA3" />
<rect x="34" y="11" width="1" height="1" fill="#302E2B" />
<rect x="35" y="11" width="1" height="1" fill="#302E2B" />
<rect x="36" y="11" width="1" height="1" fill="#B6ADA3" />
<rect x="37" y="11" width="1" height="1" fill="#9C8C7C" />
<rect x="38" y="11" width="1" height="1" fill="#302E2B" />
<rect x="39" y="11" width="1" height="1" fill="#302E2B" />
<rect x="25" y="12" width="1" height="1" fill="#302E2B" />
<rect x="26" y="12" width="1" height="1" fill="#B6ADA3" />
<rect x="27" y="12" width="1" height="1" fill="#B6ADA3" />
<rect x="28" y="12" width="1" height="1" fill="#B6B2AE" />
<rect x="29" y="12" width="1" height="1" fill="#CFCECC" />
<rect x="30" y="12" width="1" height="1" fill="#B6ADA3" />
<rect x="31" y="12" width="1" height="1" fill="#B6ADA3" />
<rect x="32" y="12" width="1" height="1" fill="#B6ADA3" />
<rect x="33" y="12" width="1" height="1" fill="#B6ADA3" />
<rect x="34" y="12" width="1" height="1" fill="#B6ADA3" />
<rect x="35" y="12" width="1" height="1" fill="#B6ADA3" />
<rect x="36" y="12" width="1" height="1" fill="#B6ADA3" />
<rect x="37" y="12" width="1" height="1" fill="#B6ADA3" />
<rect x="38" y="12" width="1" height="1" fill="#9C8C7C" />
<rect x="39" y="12" width="1" height="1" fill="#302E2B" />
<rect x="40" y="12" width="1" height="1" fill="#302E2B" />
<rect x="24" y="13" width="1" height="1" fill="#302E2B" />
<rect x="25" y="13" width="1" height="1" fill="#302E2B" />
<rect x="26" y="13" width="1" height="1" fill="#B6ADA3" />
<rect x="27" y="13" width="1" height="1" fill="#B6ADA3" />
<rect x="28" y="13" width="1" height="1" fill="#B6B2AE" />
<rect x="29" y="13" width="1" height="1" fill="#B6B2AE" />
<rect x="30" y="13" width="1" height="1" fill="#B6ADA3" />
<rect x="31" y="13" width="1" height="1" fill="#B6ADA3" />
<rect x="32" y="13" width="1" height="1" fill="#B6ADA3" />
<rect x="33" y="13" width="1" height="1" fill="#B6ADA3" />
<rect x="34" y="13" width="1" height="1" fill="#B6ADA3" />
<rect x="35" y="13" width="1" height="1" fill="#B6ADA3" />
<rect x="36" y="13" width="1" height="1" fill="#B6ADA3" />
<rect x="37" y="13" width="1" height="1" fill="#B6ADA3" />
<rect x="38" y="13" width="1" height="1" fill="#B6ADA3" />
<rect x="39" y="13" width="1" height="1" fill="#5B5650" />
<rect x="40" y="13" width="1" height="1" fill="#302E2B" />
<rect x="41" y="13" width="1" height="1" fill="#302E2B" />
<rect x="23" y="14" width="1" height="1" fill="#302E2B" />
<rect x="24" y="14" width="1" height="1" fill="#302E2B" />
<rect x="25" y="14" width="1" height="1" fill="#9C8C7C" />
<rect x="26" y="14" width="1" height="1" fill="#B6ADA3" />
<rect x="27" y="14" width="1" height="1" fill="#B6B2AE" />
<rect x="28" y="14" width="1" height="1" fill="#B6B2AE" />
<rect x="29" y="14" width="1" height="1" fill="#B6ADA3" />
<rect x="30" y="14" width="1" height="1" fill="#B6ADA3" />
<rect x="31" y="14" width="1" height="1" fill="#B6ADA3" />
<rect x="32" y="14" width="1" height="1" fill="#B6ADA3" />
<rect x="33" y="14" width="1" height="1" fill="#B6ADA3" />
<rect x="34" y="14" width="1" height="1" fill="#B6ADA3" />
<rect x="35" y="14" width="1" height="1" fill="#B6ADA3" />
<rect x="36" y="14" width="1" height="1" fill="#B6ADA3" />
<rect x="37" y="14" width="1" height="1" fill="#B6ADA3" />
<rect x="38" y="14" width="1" height="1" fill="#B6ADA3" />
<rect x="39" y="14" width="1" height="1" fill="#9C8C7C" />
<rect x="40" y="14" width="1" height="1" fill="#5B5650" />
<rect x="41" y="14" width="1" height="1" fill="#302E2B" />
<rect x="22" y="15" width="1" height="1" fill="#302E2B" />
<rect x="23" y="15" width="1" height="1" fill="#9C8C7C" />
<rect x="24" y="15" width="1" height="1" fill="#9C8C7C" />
<rect x="25" y="15" width="1" height="1" fill="#B6ADA3" />
<rect x="26" y="15" width="1" height="1" fill="#B6B2AE" />
<rect x="27" y="15" width="1" height="1" fill="#B6B2AE" />
<rect x="28" y="15" width="1" height="1" fill="#B6ADA3" />
<rect x="29" y="15" width="1" height="1" fill="#B6ADA3" />
<rect x="30" y="15" width="1" height="1" fill="#B6ADA3" />
<rect x="31" y="15" width="1" height="1" fill="#B6ADA3" />
<rect x="32" y="15" width="1" height="1" fill="#B6ADA3" />
<rect x="33" y="15" width="1" height="1" fill="#B6ADA3" />
<rect x="34" y="15" width="1" height="1" fill="#B6ADA3" />
<rect x="35" y="15" width="1" height="1" fill="#B6ADA3" />
<rect x="36" y="15" width="1" height="1" fill="#B6ADA3" />
<rect x="37" y="15" width="1" height="1" fill="#B6ADA3" />
<rect x="38" y="15" width="1" height="1" fill="#B6ADA3" />
<rect x="39" y="15" width="1" height="1" fill="#9C8C7C" />
<rect x="40" y="15" width="1" height="1" fill="#5B5650" />
<rect x="41" y="15" width="1" height="1" fill="#302E2B" />
<rect x="21" y="16" width="1" height="1" fill="#302E2B" />
<rect x="22" y="16" width="1" height="1" fill="#9C8C7C" />
<rect x="23" y="16" width="1" height="1" fill="#B6ADA3" />
<rect x="24" y="16" width="1" height="1" fill="#B6ADA3" />
<rect x="25" y="16" width="1" height="1" fill="#B6B2AE" />
<rect x="26" y="16" width="1" height="1" fill="#B6B2AE" />
<rect x="27" y="16" width="1" height="1" fill="#B6ADA3" />
<rect x="28" y="16" width="1" height="1" fill="#B6ADA3" />
<rect x="29" y="16" width="1" height="1" fill="#B6ADA3" />
<rect x="30" y="16" width="1" height="1" fill="#B6ADA3" />
<rect x="31" y="16" width="1" height="1" fill="#ADADAD" />
<rect x="32" y="16" width="1" height="1" fill="#ADADAD" />
<rect x="33" y="16" width="1" height="1" fill="#ADADAD" />
<rect x="34" y="16" width="1" height="1" fill="#797672" />
<rect x="35" y="16" width="1" height="1" fill="#797672" />
<rect x="36" y="16" width="1" height="1" fill="#9C8C7C" />
<rect x="37" y="16" width="1" height="1" fill="#9C8C7C" />
<rect x="38" y="16" width="1" height="1" fill="#797672" />
<rect x="39" y="16" width="1" height="1" fill="#797672" />
<rect x="40" y="16" width="1" height="1" fill="#302E2B" />
<rect x="20" y="17" width="1" height="1" fill="#302E2B" />
<rect x="21" y="17" width="1" height="1" fill="#302E2B" />
<rect x="22" y="17" width="1" height="1" fill="#B6ADA3" />
<rect x="23" y="17" width="1" height="1" fill="#B6ADA3" />
<rect x="24" y="17" width="1" height="1" fill="#B6B2AE" />
<rect x="25" y="17" width="1" height="1" fill="#CFCECC" />
<rect x="26" y="17" width="1" height="1" fill="#B6ADA3" />
<rect x="27" y="17" width="1" height="1" fill="#B6ADA3" />
<rect x="28" y="17" width="1" height="1" fill="#B6ADA3" />
<rect x="29" y="17" width="1" height="1" fill="#B6ADA3" />
<rect x="30" y="17" width="1" height="1" fill="#9C8C7C" />
<rect x="31" y="17" width="1" height="1" fill="#797672" />
<rect x="32" y="17" width="1" height="1" fill="#5B5650" />
<rect x="33" y="17" width="1" height="1" fill="#5B5650" />
<rect x="34" y="17" width="1" height="1" fill="#5B5650" />
<rect x="35" y="17" width="1" height="1" fill="#5B5650" />
<rect x="36" y="17" width="1" height="1" fill="#797672" />
<rect x="37" y="17" width="1" height="1" fill="#797672" />
<rect x="38" y="17" width="1" height="1" fill="#5B5650" />
<rect x="39" y="17" width="1" height="1" fill="#5B5650" />
<rect x="40" y="17" width="1" height="1" fill="#302E2B" />
<rect x="19" y="18" width="1" height="1" fill="#302E2B" />
<rect x="20" y="18" width="1" height="1" fill="#302E2B" />
<rect x="21" y="18" width="1" height="1" fill="#9C8C7C" />
<rect x="22" y="18" width="1" height="1" fill="#B6ADA3" />
<rect x="23" y="18" width="1" height="1" fill="#B6B2AE" />
<rect x="24" y="18" width="1" height="1" fill="#B6B2AE" />
<rect x="25" y="18" width="1" height="1" fill="#B6ADA3" />
<rect x="26" y="18" width="1" height="1" fill="#B6ADA3" />
<rect x="27" y="18" width="1" height="1" fill="#B6ADA3" />
<rect x="28" y="18" width="1" height="1" fill="#B6ADA3" />
<rect x="29" y="18" width="1" height="1" fill="#ADADAD" />
<rect x="30" y="18" width="1" height="1" fill="#797672" />
<rect x="31" y="18" width="1" height="1" fill="#5B5650" />
<rect x="32" y="18" width="1" height="1" fill="#302E2B" />
<rect x="33" y="18" width="1" height="1" fill="#302E2B" />
<rect x="34" y="18" width="1" height="1" fill="#302E2B" />
<rect x="35" y="18" width="1" height="1" fill="#302E2B" />
<rect x="36" y="18" width="1" height="1" fill="#5B5650" />
<rect x="37" y="18" width="1" height="1" fill="#5B5650" />
<rect x="38" y="18" width="1" height="1" fill="#302E2B" />
<rect x="39" y="18" width="1" height="1" fill="#302E2B" />
<rect x="40" y="18" width="1" height="1" fill="#302E2B" />
<rect x="18" y="19" width="1" height="1" fill="#302E2B" />
<rect x="19" y="19" width="1" height="1" fill="#9C8C7C" />
<rect x="20" y="19" width="1" height="1" fill="#9C8C7C" />
<rect x="21" y="19" width="1" height="1" fill="#B6ADA3" />
<rect x="22" y="19" width="1" height="1" fill="#B6B2AE" />
<rect x="23" y="19" width="1" height="1" fill="#B6B2AE" />
<rect x="24" y="19" width="1" height="1" fill="#B6ADA3" />
<rect x="25" y="19" width="1" height="1" fill="#B6B2AE" />
<rect x="26" y="19" width="1" height="1" fill="#B6ADA3" />
<rect x="27" y="19" width="1" height="1" fill="#B6ADA3" />
<rect x="28" y="19" width="1" height="1" fill="#B6ADA3" />
<rect x="29" y="19" width="1" height="1" fill="#797672" />
<rect x="30" y="19" width="1" height="1" fill="#5B5650" />
<rect x="31" y="19" width="1" height="1" fill="#302E2B" />
<rect x="32" y="19" width="1" height="1" fill="#302E2B" />
<rect x="36" y="19" width="1" height="1" fill="#302E2B" />
<rect x="37" y="19" width="1" height="1" fill="#302E2B" />
<rect x="17" y="20" width="1" height="1" fill="#302E2B" />
<rect x="18" y="20" width="1" height="1" fill="#9C8C7C" />
<rect x="19" y="20" width="1" height="1" fill="#B6ADA3" />
<rect x="20" y="20" width="1" height="1" fill="#B6ADA3" />
<rect x="21" y="20" width="1" height="1" fill="#B6B2AE" />
<rect x="22" y="20" width="1" height="1" fill="#CFCECC" />
<rect x="23" y="20" width="1" height="1" fill="#B6B2AE" />
<rect x="24" y="20" width="1" height="1" fill="#B6B2AE" />
<rect x="25" y="20" width="1" height="1" fill="#B6B2AE" />
<rect x="26" y="20" width="1" height="1" fill="#B6ADA3" />
<rect x="27" y="20" width="1" height="1" fill="#B6ADA3" />
<rect x="28" y="20" width="1" height="1" fill="#797672" />
<rect x="29" y="20" width="1" height="1" fill="#5B5650" />
<rect x="30" y="20" width="1" height="1" fill="#302E2B" />
<rect x="31" y="20" width="1" height="1" fill="#302E2B" />
<rect x="16" y="21" width="1" height="1" fill="#302E2B" />
<rect x="17" y="21" width="1" height="1" fill="#302E2B" />
<rect x="18" y="21" width="1" height="1" fill="#B6ADA3" />
<rect x="19" y="21" width="1" height="1" fill="#B6B2AE" />
<rect x="20" y="21" width="1" height="1" fill="#B6B2AE" />
<rect x="21" y="21" width="1" height="1" fill="#CFCECC" />
<rect x="22" y="21" width="1" height="1" fill="#CFCECC" />
<rect x="23" y="21" width="1" height="1" fill="#B6B2AE" />
<rect x="24" y="21" width="1" height="1" fill="#B6ADA3" />
<rect x="25" y="21" width="1" height="1" fill="#B6ADA3" />
<rect x="26" y="21" width="1" height="1" fill="#9C8C7C" />
<rect x="27" y="21" width="1" height="1" fill="#ADADAD" />
<rect x="28" y="21" width="1" height="1" fill="#5B5650" />
<rect x="29" y="21" width="1" height="1" fill="#5B5650" />
<rect x="30" y="21" width="1" height="1" fill="#302E2B" />
<rect x="15" y="22" width="1" height="1" fill="#302E2B" />
<rect x="16" y="22" width="1" height="1" fill="#9C8C7C" />
<rect x="17" y="22" width="1" height="1" fill="#9C8C7C" />
<rect x="18" y="22" width="1" height="1" fill="#B6B2AE" />
<rect x="19" y="22" width="1" height="1" fill="#B6B2AE" />
<rect x="20" y="22" width="1" height="1" fill="#CFCECC" />
<rect x="21" y="22" width="1" height="1" fill="#CFCECC" />
<rect x="22" y="22" width="1" height="1" fill="#B6B2AE" />
<rect x="23" y="22" width="1" height="1" fill="#B6ADA3" />
<rect x="24" y="22" width="1" height="1" fill="#B6ADA3" />
<rect x="25" y="22" width="1" height="1" fill="#9C8C7C" />
<rect x="26" y="22" width="1" height="1" fill="#797672" />
<rect x="27" y="22" width="1" height="1" fill="#5B5650" />
<rect x="28" y="22" width="1" height="1" fill="#5B5650" />
<rect x="29" y="22" width="1" height="1" fill="#302E2B" />
<rect x="14" y="23" width="1" height="1" fill="#302E2B" />
<rect x="15" y="23" width="1" height="1" fill="#302E2B" />
<rect x="16" y="23" width="1" height="1" fill="#9C8C7C" />
<rect x="17" y="23" width="1" height="1" fill="#B6ADA3" />
<rect x="18" y="23" width="1" height="1" fill="#B6B2AE" />
<rect x="19" y="23" width="1" height="1" fill="#CFCECC" />
<rect x="20" y="23" width="1" height="1" fill="#B6B2AE" />
<rect x="21" y="23" width="1" height="1" fill="#B6B2AE" />
<rect x="22" y="23" width="1" height="1" fill="#B6ADA3" />
<rect x="23" y="23" width="1" height="1" fill="#B6ADA3" />
<rect x="24" y="23" width="1" height="1" fill="#B6ADA3" />
<rect x="25" y="23" width="1" height="1" fill="#797672" />
<rect x="26" y="23" width="1" height="1" fill="#5B5650" />
<rect x="27" y="23" width="1" height="1" fill="#302E2B" />
<rect x="28" y="23" width="1" height="1" fill="#302E2B" />
<rect x="12" y="24" width="1" height="1" fill="#302E2B" />
<rect x="13" y="24" width="1" height="1" fill="#302E2B" />
<rect x="14" y="24" width="1" height="1" fill="#302E2B" />
<rect x="15" y="24" width="1" height="1" fill="#9C8C7C" />
<rect x="16" y="24" width="1" height="1" fill="#B6ADA3" />
<rect x="17" y="24" width="1" height="1" fill="#B6B2AE" />
<rect x="18" y="24" width="1" height="1" fill="#CFCECC" />
<rect x="19" y="24" width="1" height="1" fill="#B6B2AE" />
<rect x="20" y="24" width="1" height="1" fill="#B6ADA3" />
<rect x="21" y="24" width="1" height="1" fill="#B6ADA3" />
<rect x="22" y="24" width="1" height="1" fill="#B6ADA3" />
<rect x="23" y="24" width="1" height="1" fill="#ADADAD" />
<rect x="24" y="24" width="1" height="1" fill="#ADADAD" />
<rect x="25" y="24" width="1" height="1" fill="#5B5650" />
<rect x="26" y="24" width="1" height="1" fill="#302E2B" />
<rect x="27" y="24" width="1" height="1" fill="#302E2B" />
<rect x="11" y="25" width="1" height="1" fill="#302E2B" />
<rect x="12" y="25" width="1" height="1" fill="#302E2B" />
<rect x="13" y="25" width="1" height="1" fill="#9C8C7C" />
<rect x="14" y="25" width="1" height="1" fill="#B6ADA3" />
<rect x="15" y="25" width="1" height="1" fill="#B6B2AE" />
<rect x="16" y="25" width="1" height="1" fill="#B6B2AE" />
<rect x="17" y="25" width="1" height="1" fill="#B6B2AE" />
<rect x="18" y="25" width="1" height="1" fill="#B6B2AE" />
<rect x="19" y="25" width="1" height="1" fill="#B6B2AE" />
<rect x="20" y="25" width="1" height="1" fill="#B6ADA3" />
<rect x="21" y="25" width="1" height="1" fill="#B6ADA3" />
<rect x="22" y="25" width="1" height="1" fill="#B6ADA3" />
<rect x="23" y="25" width="1" height="1" fill="#797672" />
<rect x="24" y="25" width="1" height="1" fill="#797672" />
<rect x="25" y="25" width="1" height="1" fill="#5B5650" />
<rect x="26" y="25" width="1" height="1" fill="#302E2B" />
<rect x="5" y="26" width="1" height="1" fill="#302E2B" />
<rect x="6" y="26" width="1" height="1" fill="#302E2B" />
<rect x="7" y="26" width="1" height="1" fill="#302E2B" />
<rect x="8" y="26" width="1" height="1" fill="#302E2B" />
<rect x="9" y="26" width="1" height="1" fill="#302E2B" />
<rect x="10" y="26" width="1" height="1" fill="#302E2B" />
<rect x="11" y="26" width="1" height="1" fill="#302E2B" />
<rect x="12" y="26" width="1" height="1" fill="#9C8C7C" />
<rect x="13" y="26" width="1" height="1" fill="#B6ADA3" />
<rect x="14" y="26" width="1" height="1" fill="#B6B2AE" />
<rect x="15" y="26" width="1" height="1" fill="#B6B2AE" />
<rect x="16" y="26" width="1" height="1" fill="#CFCECC" />
<rect x="17" y="26" width="1" height="1" fill="#B6B2AE" />
<rect x="18" y="26" width="1" height="1" fill="#B6B2AE" />
<rect x="19" y="26" width="1" height="1" fill="#B6ADA3" />
<rect x="20" y="26" width="1" height="1" fill="#B6ADA3" />
<rect x="21" y="26" width="1" height="1" fill="#B6ADA3" />
<rect x="22" y="26" width="1" height="1" fill="#797672" />
<rect x="23" y="26" width="1" height="1" fill="#5B5650" />
<rect x="24" y="26" width="1" height="1" fill="#5B5650" />
<rect x="25" y="26" width="1" height="1" fill="#302E2B" />
<rect x="3" y="27" width="1" height="1" fill="#302E2B" />
<rect x="4" y="27" width="1" height="1" fill="#302E2B" />
<rect x="5" y="27" width="1" height="1" fill="#9C8C7C" />
<rect x="6" y="27" width="1" height="1" fill="#9C8C7C" />
<rect x="7" y="27" width="1" height="1" fill="#9C8C7C" />
<rect x="8" y="27" width="1" height="1" fill="#9C8C7C" />
<rect x="9" y="27" width="1" height="1" fill="#9C8C7C" />
<rect x="10" y="27" width="1" height="1" fill="#9C8C7C" />
<rect x="11" y="27" width="1" height="1" fill="#9C8C7C" />
<rect x="12" y="27" width="1" height="1" fill="#B6ADA3" />
<rect x="13" y="27" width="1" height="1" fill="#B6B2AE" />
<rect x="14" y="27" width="1" height="1" fill="#B6B2AE" />
<rect x="15" y="27" width="1" height="1" fill="#CFCECC" />
<rect x="16" y="27" width="1" height="1" fill="#CFCECC" />
<rect x="17" y="27" width="1" height="1" fill="#B6B2AE" />
<rect x="18" y="27" width="1" height="1" fill="#B6ADA3" />
<rect x="19" y="27" width="1" height="1" fill="#B6ADA3" />
<rect x="20" y="27" width="1" height="1" fill="#B6ADA3" />
<rect x="21" y="27" width="1" height="1" fill="#ADADAD" />
<rect x="22" y="27" width="1" height="1" fill="#797672" />
<rect x="23" y="27" width="1" height="1" fill="#5B5650" />
<rect x="24" y="27" width="1" height="1" fill="#302E2B" />
<rect x="3" y="28" width="1" height="1" fill="#302E2B" />
<rect x="4" y="28" width="1" height="1" fill="#9C8C7C" />
<rect x="5" y="28" width="1" height="1" fill="#B6ADA3" />
<rect x="6" y="28" width="1" height="1" fill="#B6ADA3" />
<rect x="7" y="28" width="1" height="1" fill="#B6ADA3" />
<rect x="8" y="28" width="1" height="1" fill="#B6ADA3" />
<rect x="9" y="28" width="1" height="1" fill="#B6ADA3" />
<rect x="10" y="28" width="1" height="1" fill="#B6ADA3" />
<rect x="11" y="28" width="1" height="1" fill="#B6B2AE" />
<rect x="12" y="28" width="1" height="1" fill="#B6B2AE" />
<rect x="13" y="28" width="1" height="1" fill="#B6B2AE" />
<rect x="14" y="28" width="1" height="1" fill="#CFCECC" />
<rect x="15" y="28" width="1" height="1" fill="#B6B2AE" />
<rect x="16" y="28" width="1" height="1" fill="#B6B2AE" />
<rect x="17" y="28" width="1" height="1" fill="#B6ADA3" />
<rect x="18" y="28" width="1" height="1" fill="#B6ADA3" />
<rect x="19" y="28" width="1" height="1" fill="#B6ADA3" />
<rect x="20" y="28" width="1" height="1" fill="#B6ADA3" />
<rect x="21" y="28" width="1" height="1" fill="#797672" />
<rect x="22" y="28" width="1" height="1" fill="#5B5650" />
<rect x="23" y="28" width="1" height="1" fill="#302E2B" />
<rect x="2" y="29" width="1" height="1" fill="#302E2B" />
<rect x="3" y="29" width="1" height="1" fill="#9C8C7C" />
<rect x="4" y="29" width="1" height="1" fill="#B6ADA3" />
<rect x="5" y="29" width="1" height="1" fill="#B6ADA3" />
<rect x="6" y="29" width="1" height="1" fill="#B6ADA3" />
<rect x="7" y="29" width="1" height="1" fill="#B6ADA3" />
<rect x="8" y="29" width="1" height="1" fill="#B6ADA3" />
<rect x="9" y="29" width="1" height="1" fill="#B6B2AE" />
<rect x="10" y="29" width="1" height="1" fill="#B6B2AE" />
<rect x="11" y="29" width="1" height="1" fill="#B6B2AE" />
<rect x="12" y="29" width="1" height="1" fill="#CFCECC" />
<rect x="13" y="29" width="1" height="1" fill="#CFCECC" />
<rect x="14" y="29" width="1" height="1" fill="#CFCECC" />
<rect x="15" y="29" width="1" height="1" fill="#B6B2AE" />
<rect x="16" y="29" width="1" height="1" fill="#B6ADA3" />
<rect x="17" y="29" width="1" height="1" fill="#B6ADA3" />
<rect x="18" y="29" width="1" height="1" fill="#B6ADA3" />
<rect x="19" y="29" width="1" height="1" fill="#B6ADA3" />
<rect x="20" y="29" width="1" height="1" fill="#797672" />
<rect x="21" y="29" width="1" height="1" fill="#5B5650" />
<rect x="22" y="29" width="1" height="1" fill="#302E2B" />
<rect x="1" y="30" width="1" height="1" fill="#302E2B" />
<rect x="2" y="30" width="1" height="1" fill="#9C8C7C" />
<rect x="3" y="30" width="1" height="1" fill="#B6ADA3" />
<rect x="4" y="30" width="1" height="1" fill="#B6ADA3" />
<rect x="5" y="30" width="1" height="1" fill="#B6ADA3" />
<rect x="6" y="30" width="1" height="1" fill="#B6ADA3" />
<rect x="7" y="30" width="1" height="1" fill="#B6B2AE" />
<rect x="8" y="30" width="1" height="1" fill="#B6B2AE" />
<rect x="9" y="30" width="1" height="1" fill="#B6B2AE" />
<rect x="10" y="30" width="1" height="1" fill="#CFCECC" />
<rect x="11" y="30" width="1" height="1" fill="#CFCECC" />
<rect x="12" y="30" width="1" height="1" fill="#CFCECC" />
<rect x="13" y="30" width="1" height="1" fill="#B6B2AE" />
<rect x="14" y="30" width="1" height="1" fill="#B6B2AE" />
<rect x="15" y="30" width="1" height="1" fill="#B6B2AE" />
<rect x="16" y="30" width="1" height="1" fill="#B6ADA3" />
<rect x="17" y="30" width="1" height="1" fill="#B6ADA3" />
<rect x="18" y="30" width="1" height="1" fill="#B6ADA3" />
<rect x="19" y="30" width="1" height="1" fill="#797672" />
<rect x="20" y="30" width="1" height="1" fill="#5B5650" />
<rect x="21" y="30" width="1" height="1" fill="#302E2B" />
<rect x="22" y="30" width="1" height="1" fill="#302E2B" />
<rect x="1" y="31" width="1" height="1" fill="#302E2B" />
<rect x="2" y="31" width="1" height="1" fill="#B6ADA3" />
<rect x="3" y="31" width="1" height="1" fill="#B6ADA3" />
<rect x="4" y="31" width="1" height="1" fill="#B6ADA3" />
<rect x="5" y="31" width="1" height="1" fill="#B6B2AE" />
<rect x="6" y="31" width="1" height="1" fill="#B6B2AE" />
<rect x="7" y="31" width="1" height="1" fill="#B6B2AE" />
<rect x="8" y="31" width="1" height="1" fill="#CFCECC" />
<rect x="9" y="31" width="1" height="1" fill="#CFCECC" />
<rect x="10" y="31" width="1" height="1" fill="#CFCECC" />
<rect x="11" y="31" width="1" height="1" fill="#B6B2AE" />
<rect x="12" y="31" width="1" height="1" fill="#B6B2AE" />
<rect x="13" y="31" width="1" height="1" fill="#B6B2AE" />
<rect x="14" y="31" width="1" height="1" fill="#B6ADA3" />
<rect x="15" y="31" width="1" height="1" fill="#B6ADA3" />
<rect x="16" y="31" width="1" height="1" fill="#B6ADA3" />
<rect x="17" y="31" width="1" height="1" fill="#B6ADA3" />
<rect x="18" y="31" width="1" height="1" fill="#ADADAD" />
<rect x="19" y="31" width="1" height="1" fill="#5B5650" />
<rect x="20" y="31" width="1" height="1" fill="#302E2B" />
<rect x="21" y="31" width="1" height="1" fill="#302E2B" />
<rect x="1" y="32" width="1" height="1" fill="#302E2B" />
<rect x="2" y="32" width="1" height="1" fill="#B6ADA3" />
<rect x="3" y="32" width="1" height="1" fill="#B6ADA3" />
<rect x="4" y="32" width="1" height="1" fill="#B6ADA3" />
<rect x="5" y="32" width="1" height="1" fill="#B6B2AE" />
<rect x="6" y="32" width="1" height="1" fill="#B6B2AE" />
<rect x="7" y="32" width="1" height="1" fill="#CFCECC" />
<rect x="8" y="32" width="1" height="1" fill="#CFCECC" />
<rect x="9" y="32" width="1" height="1" fill="#CFCECC" />
<rect x="10" y="32" width="1" height="1" fill="#CFCECC" />
<rect x="11" y="32" width="1" height="1" fill="#CFCECC" />
<rect x="12" y="32" width="1" height="1" fill="#B6B2AE" />
<rect x="13" y="32" width="1" height="1" fill="#B6ADA3" />
<rect x="14" y="32" width="1" height="1" fill="#B6ADA3" />
<rect x="15" y="32" width="1" height="1" fill="#B6ADA3" />
<rect x="16" y="32" width="1" height="1" fill="#B6ADA3" />
<rect x="17" y="32" width="1" height="1" fill="#797672" />
<rect x="18" y="32" width="1" height="1" fill="#5B5650" />
<rect x="19" y="32" width="1" height="1" fill="#302E2B" />
<rect x="1" y="33" width="1" height="1" fill="#302E2B" />
<rect x="2" y="33" width="1" height="1" fill="#9C8C7C" />
<rect x="3" y="33" width="1" height="1" fill="#B6ADA3" />
<rect x="4" y="33" width="1" height="1" fill="#B6ADA3" />
<rect x="5" y="33" width="1" height="1" fill="#B6ADA3" />
<rect x="6" y="33" width="1" height="1" fill="#B6B2AE" />
<rect x="7" y="33" width="1" height="1" fill="#B6B2AE" />
<rect x="8" y="33" width="1" height="1" fill="#B6B2AE" />
<rect x="9" y="33" width="1" height="1" fill="#B6B2AE" />
<rect x="10" y="33" width="1" height="1" fill="#CFCECC" />
<rect x="11" y="33" width="1" height="1" fill="#B6B2AE" />
<rect x="12" y="33" width="1" height="1" fill="#B6ADA3" />
<rect x="13" y="33" width="1" height="1" fill="#B6ADA3" />
<rect x="14" y="33" width="1" height="1" fill="#B6ADA3" />
<rect x="15" y="33" width="1" height="1" fill="#B6ADA3" />
<rect x="16" y="33" width="1" height="1" fill="#ADADAD" />
<rect x="17" y="33" width="1" height="1" fill="#5B5650" />
<rect x="18" y="33" width="1" height="1" fill="#302E2B" />
<rect x="2" y="34" width="1" height="1" fill="#302E2B" />
<rect x="3" y="34" width="1" height="1" fill="#B6ADA3" />
<rect x="4" y="34" width="1" height="1" fill="#B6ADA3" />
<rect x="5" y="34" width="1" height="1" fill="#B6ADA3" />
<rect x="6" y="34" width="1" height="1" fill="#B6ADA3" />
<rect x="7" y="34" width="1" height="1" fill="#B6B2AE" />
<rect x="8" y="34" width="1" height="1" fill="#B6B2AE" />
<rect x="9" y="34" width="1" height="1" fill="#B6B2AE" />
<rect x="10" y="34" width="1" height="1" fill="#B6B2AE" />
<rect x="11" y="34" width="1" height="1" fill="#B6B2AE" />
<rect x="12" y="34" width="1" height="1" fill="#B6ADA3" />
<rect x="13" y="34" width="1" height="1" fill="#B6ADA3" />
<rect x="14" y="34" width="1" height="1" fill="#B6ADA3" />
<rect x="15" y="34" width="1" height="1" fill="#797672" />
<rect x="16" y="34" width="1" height="1" fill="#5B5650" />
<rect x="17" y="34" width="1" height="1" fill="#5B5650" />
<rect x="18" y="34" width="1" height="1" fill="#302E2B" />
<rect x="3" y="35" width="1" height="1" fill="#302E2B" />
<rect x="4" y="35" width="1" height="1" fill="#B6ADA3" />
<rect x="5" y="35" width="1" height="1" fill="#B6ADA3" />
<rect x="6" y="35" width="1" height="1" fill="#B6ADA3" />
<rect x="7" y="35" width="1" height="1" fill="#B6ADA3" />
<rect x="8" y="35" width="1" height="1" fill="#B6ADA3" />
<rect x="9" y="35" width="1" height="1" fill="#B6ADA3" />
<rect x="10" y="35" width="1" height="1" fill="#B6B2AE" />
<rect x="11" y="35" width="1" height="1" fill="#B6B2AE" />
<rect x="12" y="35" width="1" height="1" fill="#B6ADA3" />
<rect x="13" y="35" width="1" height="1" fill="#B6ADA3" />
<rect x="14" y="35" width="1" height="1" fill="#B6ADA3" />
<rect x="15" y="35" width="1" height="1" fill="#5B5650" />
<rect x="16" y="35" width="1" height="1" fill="#302E2B" />
<rect x="17" y="35" width="1" height="1" fill="#302E2B" />
<rect x="3" y="36" width="1" height="1" fill="#302E2B" />
<rect x="4" y="36" width="1" height="1" fill="#9C8C7C" />
<rect x="5" y="36" width="1" height="1" fill="#9C8C7C" />
<rect x="6" y="36" width="1" height="1" fill="#9C8C7C" />
<rect x="7" y="36" width="1" height="1" fill="#9C8C7C" />
<rect x="8" y="36" width="1" height="1" fill="#B6ADA3" />
<rect x="9" y="36" width="1" height="1" fill="#B6ADA3" />
<rect x="10" y="36" width="1" height="1" fill="#B6ADA3" />
<rect x="11" y="36" width="1" height="1" fill="#B6ADA3" />
<rect x="12" y="36" width="1" height="1" fill="#B6ADA3" />
<rect x="13" y="36" width="1" height="1" fill="#B6ADA3" />
<rect x="14" y="36" width="1" height="1" fill="#797672" />
<rect x="15" y="36" width="1" height="1" fill="#5B5650" />
<rect x="16" y="36" width="1" height="1" fill="#302E2B" />
<rect x="4" y="37" width="1" height="1" fill="#302E2B" />
<rect x="5" y="37" width="1" height="1" fill="#302E2B" />
<rect x="6" y="37" width="1" height="1" fill="#302E2B" />
<rect x="7" y="37" width="1" height="1" fill="#797672" />
<rect x="8" y="37" width="1" height="1" fill="#9C8C7C" />
<rect x="9" y="37" width="1" height="1" fill="#B6ADA3" />
<rect x="10" y="37" width="1" height="1" fill="#B6ADA3" />
<rect x="11" y="37" width="1" height="1" fill="#B6ADA3" />
<rect x="12" y="37" width="1" height="1" fill="#B6ADA3" />
<rect x="13" y="37" width="1" height="1" fill="#9C8C7C" />
<rect x="14" y="37" width="1" height="1" fill="#5B5650" />
<rect x="15" y="37" width="1" height="1" fill="#302E2B" />
<rect x="7" y="38" width="1" height="1" fill="#302E2B" />
<rect x="8" y="38" width="1" height="1" fill="#797672" />
<rect x="9" y="38" width="1" height="1" fill="#9C8C7C" />
<rect x="10" y="38" width="1" height="1" fill="#9C8C7C" />
<rect x="11" y="38" width="1" height="1" fill="#B6ADA3" />
<rect x="12" y="38" width="1" height="1" fill="#9C8C7C" />
<rect x="13" y="38" width="1" height="1" fill="#797672" />
<rect x="14" y="38" width="1" height="1" fill="#5B5650" />
<rect x="15" y="38" width="1" height="1" fill="#302E2B" />
<rect x="7" y="39" width="1" height="1" fill="#302E2B" />
<rect x="8" y="39" width="1" height="1" fill="#5B5650" />
<rect x="9" y="39" width="1" height="1" fill="#5B5650" />
<rect x="10" y="39" width="1" height="1" fill="#5B5650" />
<rect x="11" y="39" width="1" height="1" fill="#797672" />
<rect x="12" y="39" width="1" height="1" fill="#797672" />
<rect x="13" y="39" width="1" height="1" fill="#797672" />
<rect x="14" y="39" width="1" height="1" fill="#5B5650" />
<rect x="15" y="39" width="1" height="1" fill="#302E2B" />
<rect x="7" y="40" width="1" height="1" fill="#302E2B" />
<rect x="8" y="40" width="1" height="1" fill="#302E2B" />
<rect x="9" y="40" width="1" height="1" fill="#302E2B" />
<rect x="10" y="40" width="1" height="1" fill="#302E2B" />
<rect x="11" y="40" width="1" height="1" fill="#5B5650" />
<rect x="12" y="40" width="1" height="1" fill="#5B5650" />
<rect x="13" y="40" width="1" height="1" fill="#5B5650" />
<rect x="14" y="40" width="1" height="1" fill="#302E2B" />
<rect x="10" y="41" width="1" height="1" fill="#302E2B" />
<rect x="11" y="41" width="1" height="1" fill="#302E2B" />
<rect x="12" y="41" width="1" height="1" fill="#302E2B" />
<rect x="13" y="41" width="1" height="1" fill="#302E2B" />
</svg>