<?xml version="1.0" encoding="UTF-8" ?>
<svg version="1.1" width="48" height="48" xmlns="http://www.w3.org/2000/svg" shape-rendering="crispEdges">
<rect x="18" y="1" width="1" height="1" fill="#5F4200" />
<rect x="19" y="1" width="1" height="1" fill="#5F4200" />
<rect x="20" y="1" width="1" height="1" fill="#5F4200" />
<rect x="21" y="1" width="1" height="1" fill="#5F4200" />
<rect x="22" y="1" width="1" height="1" fill="#5F4200" />
<rect x="17" y="2" width="1" height="1" fill="#5F4200" />
<rect x="18" y="2" width="1" height="1" fill="#A9976E" />
<rect x="19" y="2" width="1" height="1" fill="#A9976E" />
<rect x="20" y="2" width="1" height="1" fill="#A9976E" />
<rect x="21" y="2" width="1" height="1" fill="#A9976E" />
<rect x="22" y="2" width="1" height="1" fill="#A9976E" />
<rect x="23" y="2" width="1" height="1" fill="#5F4200" />
<rect x="24" y="2" width="1" height="1" fill="#5F4200" />
<rect x="25" y="2" width="1" height="1" fill="#5F4200" />
<rect x="26" y="2" width="1" height="1" fill="#5F4200" />
<rect x="15" y="3" width="1" height="1" fill="#5F4200" />
<rect x="16" y="3" width="1" height="1" fill="#5F4200" />
<rect x="17" y="3" width="1" height="1" fill="#A9976E" />
<rect x="18" y="3" width="1" height="1" fill="#A9976E" />
<rect x="19" y="3" width="1" height="1" fill="#A9976E" />
<rect x="20" y="3" width="1" height="1" fill="#A9976E" />
<rect x="21" y="3" width="1" height="1" fill="#A0864A" />
<rect x="22" y="3" width="1" height="1" fill="#A0864A" />
<rect x="23" y="3" width="1" height="1" fill="#A0864A" />
<rect x="24" y="3" width="1" height="1" fill="#A0864A" />
<rect x="25" y="3" width="1" height="1" fill="#A0864A" />
<rect x="26" y="3" width="1" height="1" fill="#A0864A" />
<rect x="27" y="3" width="1" height="1" fill="#5F4200" />
<rect x="28" y="3" width="1" height="1" fill="#5F4200" />
<rect x="29" y="3" width="1" height="1" fill="#5F4200" />
<rect x="14" y="4" width="1" height="1" fill="#5F4200" />
<rect x="15" y="4" width="1" height="1" fill="#A9976E" />
<rect x="16" y="4" width="1" height="1" fill="#A9976E" />
<rect x="17" y="4" width="1" height="1" fill="#A9976E" />
<rect x="18" y="4" width="1" height="1" fill="#A9976E" />
<rect x="19" y="4" width="1" height="1" fill="#A0864A" />
<rect x="20" y="4" width="1" height="1" fill="#A0864A" />
<rect x="21" y="4" width="1" height="1" fill="#A0864A" />
<rect x="22" y="4" width="1" height="1" fill="#A0864A" />
<rect x="23" y="4" width="1" height="1" fill="#937633" />
<rect x="24" y="4" width="1" height="1" fill="#937633" />
<rect x="25" y="4" width="1" height="1" fill="#A0864A" />
<rect x="26" y="4" width="1" height="1" fill="#A0864A" />
<rect x="27" y="4" width="1" height="1" fill="#A0864A" />
<rect x="28" y="4" width="1" height="1" fill="#A0864A" />
<rect x="29" y="4" width="1" height="1" fill="#A0864A" />
<rect x="30" y="4" width="1" height="1" fill="#5F4200" />
<rect x="31" y="4" width="1" height="1" fill="#5F4200" />
<rect x="12" y="5" width="1" height="1" fill="#5F4200" />
<rect x="13" y="5" width="1" height="1" fill="#5F4200" />
<rect x="14" y="5" width="1" height="1" fill="#A9976E" />
<rect x="15" y="5" width="1" height="1" fill="#A9976E" />
<rect x="16" y="5" width="1" height="1" fill="#A9976E" />
<rect x="17" y="5" width="1" height="1" fill="#A9976E" />
<rect x="18" y="5" width="1" height="1" fill="#937633" />
<rect x="19" y="5" width="1" height="1" fill="#937633" />
<rect x="20" y="5" width="1" height="1" fill="#A0864A" />
<rect x="21" y="5" width="1" height="1" fill="#A0864A" />
<rect x="22" y="5" width="1" height="1" fill="#A0864A" />
<rect x="23" y="5" width="1" height="1" fill="#A0864A" />
<rect x="24" y="5" width="1" height="1" fill="#937633" />
<rect x="25" y="5" width="1" height="1" fill="#937633" />
<rect x="26" y="5" width="1" height="1" fill="#A0864A" />
<rect x="27" y="5" width="1" height="1" fill="#A0864A" />
<rect x="28" y="5" width="1" height="1" fill="#A0864A" />
<rect x="29" y="5" width="1" height="1" fill="#A0864A" />
<rect x="30" y="5" width="1" height="1" fill="#A0864A" />
<rect x="31" y="5" width="1" height="1" fill="#A0864A" />
<rect x="32" y="5" width="1" height="1" fill="#5F4200" />
<rect x="33" y="5" width="1" height="1" fill="#5F4200" />
<rect x="11" y="6" width="1" height="1" fill="#5F4200" />
<rect x="12" y="6" width="1" height="1" fill="#A9976E" />
<rect x="13" y="6" width="1" height="1" fill="#A9976E" />
<rect x="14" y="6" width="1" height="1" fill="#A9976E" />
<rect x="15" y="6" width="1" height="1" fill="#A9976E" />
<rect x="16" y="6" width="1" height="1" fill="#A0864A" />
<rect x="17" y="6" width="1" height="1" fill="#937633" />
<rect x="18" y="6" width="1" height="1" fill="#937633" />
<rect x="19" y="6" width="1" height="1" fill="#A0864A" />
<rect x="20" y="6" width="1" height="1" fill="#A0864A" />
<rect x="21" y="6" width="1" height="1" fill="#A0864A" />
<rect x="22" y="6" width="1" height="1" fill="#937633" />
<rect x="23" y="6" width="1" height="1" fill="#A0864A" />
<rect x="24" y="6" width="1" height="1" fill="#A0864A" />
<rect x="25" y="6" width="1" height="1" fill="#A0864A" />
<rect x="26" y="6" width="1" height="1" fill="#937633" />
<rect x="27" y="6" width="1" height="1" fill="#A0864A" />
<rect x="28" y="6" width="1" height="1" fill="#A0864A" />
<rect x="29" y="6" width="1" height="1" fill="#937633" />
<rect x="30" y="6" width="1" height="1" fill="#937633" />
<rect x="31" y="6" width="1" height="1" fill="#A0864A" />
<rect x="32" y="6" width="1" height="1" fill="#A0864A" />
<rect x="33" y="6" width="1" height="1" fill="#A0864A" />
<rect x="34" y="6" width="1" height="1" fill="#5F4200" />
<rect x="9" y="7" width="1" height="1" fill="#5F4200" />
<rect x="10" y="7" width="1" height="1" fill="#5F4200" />
<rect x="11" y="7" width="1" height="1" fill="#A9976E" />
<rect x="12" y="7" width="1" height="1" fill="#A9976E" />
<rect x="13" y="7" width="1" height="1" fill="#A9976E" />
<rect x="14" y="7" width="1" height="1" fill="#A0864A" />
<rect x="15" y="7" width="1" height="1" fill="#A0864A" />
<rect x="16" y="7" width="1" height="1" fill="#937633" />
<rect x="17" y="7" width="1" height="1" fill="#937633" />
<rect x="18" y="7" width="1" height="1" fill="#A0864A" />
<rect x="19" y="7" width="1" height="1" fill="#A0864A" />
<rect x="20" y="7" width="1" height="1" fill="#A0864A" />
<rect x="21" y="7" width="1" height="1" fill="#937633" />
<rect x="22" y="7" width="1" height="1" fill="#937633" />
<rect x="23" y="7" width="1" height="1" fill="#A0864A" />
<rect x="24" y="7" width="1" height="1" fill="#A0864A" />
<rect x="25" y="7" width="1" height="1" fill="#A0864A" />
<rect x="26" y="7" width="1" height="1" fill="#937633" />
<rect x="27" y="7" width="1" height="1" fill="#937633" />
<rect x="28" y="7" width="1" height="1" fill="#A0864A" />
<rect x="29" y="7" width="1" height="1" fill="#A0864A" />
<rect x="30" y="7" width="1" height="1" fill="#937633" />
<rect x="31" y="7" width="1" height="1" fill="#937633" />
<rect x="32" y="7" width="1" height="1" fill="#A0864A" />
<rect x="33" y="7" width="1" height="1" fill="#A0864A" />
<rect x="34" y="7" width="1" height="1" fill="#A0864A" />
<rect x="35" y="7" width="1" height="1" fill="#5F4200" />
<rect x="8" y="8" width="1" height="1" fill="#5F4200" />
<rect x="9" y="8" width="1" height="1" fill="#A9976E" />
<rect x="10" y="8" width="1" height="1" fill="#A9976E" />
<rect x="11" y="8" width="1" height="1" fill="#A9976E" />
<rect x="12" y="8" width="1" height="1" fill="#A9976E" />
<rect x="13" y="8" width="1" height="1" fill="#A0864A" />
<rect x="14" y="8" width="1" height="1" fill="#A0864A" />
<rect x="15" y="8" width="1" height="1" fill="#937633" />
<rect x="16" y="8" width="1" height="1" fill="#A0864A" />
<rect x="17" y="8" width="1" height="1" fill="#A0864A" />
<rect x="18" y="8" width="1" height="1" fill="#A0864A" />
<rect x="19" y="8" width="1" height="1" fill="#A0864A" />
<rect x="20" y="8" width="1" height="1" fill="#A0864A" />
<rect x="21" y="8" width="1" height="1" fill="#937633" />
<rect x="22" y="8" width="1" height="1" fill="#A0864A" />
<rect x="23" y="8" width="1" height="1" fill="#A0864A" />
<rect x="24" y="8" width="1" height="1" fill="#A0864A" />
<rect x="25" y="8" width="1" height="1" fill="#A0864A" />
<rect x="26" y="8" width="1" height="1" fill="#A0864A" />
<rect x="27" y="8" width="1" height="1" fill="#937633" />
<rect x="28" y="8" width="1" height="1" fill="#A0864A" />
<rect x="29" y="8" width="1" height="1" fill="#A0864A" />
<rect x="30" y="8" width="1" height="1" fill="#A0864A" />
<rect x="31" y="8" width="1" height="1" fill="#937633" />
<rect x="32" y="8" width="1" height="1" fill="#937633" />
<rect x="33" y="8" width="1" height="1" fill="#A0864A" />
<rect x="34" y="8" width="1" height="1" fill="#A0864A" />
<rect x="35" y="8" width="1" height="1" fill="#A0864A" />
<rect x="36" y="8" width="1" height="1" fill="#5F4200" />
<rect x="8" y="9" width="1" height="1" fill="#5F4200" />
<rect x="9" y="9" width="1" height="1" fill="#A9976E" />
<rect x="10" y="9" width="1" height="1" fill="#A9976E" />
<rect x="11" y="9" width="1" height="1" fill="#A0864A" />
<rect x="12" y="9" width="1" height="1" fill="#A0864A" />
<rect x="13" y="9" width="1" height="1" fill="#A0864A" />
<rect x="14" y="9" width="1" height="1" fill="#A0864A" />
<rect x="15" y="9" width="1" height="1" fill="#937633" />
<rect x="16" y="9" width="1" height="1" fill="#A0864A" />
<rect x="17" y="9" width="1" height="1" fill="#A0864A" />
<rect x="18" y="9" width="1" height="1" fill="#A0864A" />
<rect x="19" y="9" width="1" height="1" fill="#A0864A" />
<rect x="20" y="9" width="1" height="1" fill="#A0864A" />
<rect x="21" y="9" width="1" height="1" fill="#A0864A" />
<rect x="22" y="9" width="1" height="1" fill="#A0864A" />
<rect x="23" y="9" width="1" height="1" fill="#A0864A" />
<rect x="24" y="9" width="1" height="1" fill="#A0864A" />
<rect x="25" y="9" width="1" height="1" fill="#A0864A" />
<rect x="26" y="9" width="1" height="1" fill="#A0864A" />
<rect x="27" y="9" width="1" height="1" fill="#937633" />
<rect x="28" y="9" width="1" height="1" fill="#937633" />
<rect x="29" y="9" width="1" height="1" fill="#A0864A" />
<rect x="30" y="9" width="1" height="1" fill="#A0864A" />
<rect x="31" y="9" width="1" height="1" fill="#A0864A" />
<rect x="32" y="9" width="1" height="1" fill="#937633" />
<rect x="33" y="9" width="1" height="1" fill="#A0864A" />
<rect x="34" y="9" width="1" height="1" fill="#A0864A" />
<rect x="35" y="9" width="1" height="1" fill="#A0864A" />
<rect x="36" y="9" width="1" height="1" fill="#A0864A" />
<rect x="37" y="9" width="1" height="1" fill="#5F4200" />
<rect x="8" y="10" width="1" height="1" fill="#5F4200" />
<rect x="9" y="10" width="1" height="1" fill="#A9976E" />
<rect x="10" y="10" width="1" height="1" fill="#A0864A" />
<rect x="11" y="10" width="1" height="1" fill="#A0864A" />
<rect x="12" y="10" width="1" height="1" fill="#A0864A" />
<rect x="13" y="10" width="1" height="1" fill="#A0864A" />
<rect x="14" y="10" width="1" height="1" fill="#A0864A" />
<rect x="15" y="10" width="1" height="1" fill="#A0864A" />
<rect x="16" y="10" width="1" height="1" fill="#A0864A" />
<rect x="17" y="10" width="1" height="1" fill="#A0864A" />
<rect x="18" y="10" width="1" height="1" fill="#A0864A" />
<rect x="19" y="10" width="1" height="1" fill="#A0864A" />
<rect x="20" y="10" width="1" height="1" fill="#A0864A" />
<rect x="21" y="10" width="1" height="1" fill="#A0864A" />
<rect x="22" y="10" width="1" height="1" fill="#867140" />
<rect x="23" y="10" width="1" height="1" fill="#867140" />
<rect x="24" y="10" width="1" height="1" fill="#867140" />
<rect x="25" y="10" width="1" height="1" fill="#A0864A" />
<rect x="26" y="10" width="1" height="1" fill="#A0864A" />
<rect x="27" y="10" width="1" height="1" fill="#A0864A" />
<rect x="28" y="10" width="1" height="1" fill="#A0864A" />
<rect x="29" y="10" width="1" height="1" fill="#A0864A" />
<rect x="30" y="10" width="1" height="1" fill="#A0864A" />
<rect x="31" y="10" width="1" height="1" fill="#A0864A" />
<rect x="32" y="10" width="1" height="1" fill="#A0864A" />
<rect x="33" y="10" width="1" height="1" fill="#867140" />
<rect x="34" y="10" width="1" height="1" fill="#867140" />
<rect x="35" y="10" width="1" height="1" fill="#867140" />
<rect x="36" y="10" width="1" height="1" fill="#867140" />
<rect x="37" y="10" width="1" height="1" fill="#5F4200" />
<rect x="7" y="11" width="1" height="1" fill="#5F4200" />
<rect x="8" y="11" width="1" height="1" fill="#A0864A" />
<rect x="9" y="11" width="1" height="1" fill="#A0864A" />
<rect x="10" y="11" width="1" height="1" fill="#A0864A" />
<rect x="11" y="11" width="1" height="1" fill="#A0864A" />
<rect x="12" y="11" width="1" height="1" fill="#A0864A" />
<rect x="13" y="11" width="1" height="1" fill="#A0864A" />
<rect x="14" y="11" width="1" height="1" fill="#A0864A" />
<rect x="15" y="11" width="1" height="1" fill="#A0864A" />
<rect x="16" y="11" width="1" height="1" fill="#A0864A" />
<rect x="17" y="11" width="1" height="1" fill="#A0864A" />
<rect x="18" y="11" width="1" height="1" fill="#A0864A" />
<rect x="19" y="11" width="1" height="1" fill="#A0864A" />
<rect x="20" y="11" width="1" height="1" fill="#867140" />
<rect x="21" y="11" width="1" height="1" fill="#867140" />
<rect x="22" y="11" width="1" height="1" fill="#867140" />
<rect x="23" y="11" width="1" height="1" fill="#867140" />
<rect x="24" y="11" width="1" height="1" fill="#867140" />
<rect x="25" y="11" width="1" height="1" fill="#867140" />
<rect x="26" y="11" width="1" height="1" fill="#867140" />
<rect x="27" y="11" width="1" height="1" fill="#A0864A" />
<rect x="28" y="11" width="1" height="1" fill="#A0864A" />
<rect x="29" y="11" width="1" height="1" fill="#A0864A" />
<rect x="30" y="11" width="1" height="1" fill="#A0864A" />
<rect x="31" y="11" width="1" height="1" fill="#A0864A" />
<rect x="32" y="11" width="1" height="1" fill="#867140" />
<rect x="33" y="11" width="1" height="1" fill="#867140" />
<rect x="34" y="11" width="1" height="1" fill="#867140" />
<rect x="35" y="11" width="1" height="1" fill="#867140" />
<rect x="36" y="11" width="1" height="1" fill="#867140" />
<rect x="37" y="11" width="1" height="1" fill="#5F4200" />
<rect x="7" y="12" width="1" height="1" fill="#5F4200" />
<rect x="8" y="12" width="1" height="1" fill="#A0864A" />
<rect x="9" y="12" width="1" height="1" fill="#A0864A" />
<rect x="10" y="12" width="1" height="1" fill="#A0864A" />
<rect x="11" y="12" width="1" height="1" fill="#867140" />
<rect x="12" y="12" width="1" height="1" fill="#867140" />
<rect x="13" y="12" width="1" height="1" fill="#867140" />
<rect x="14" y="12" width="1" height="1" fill="#867140" />
<rect x="15" y="12" width="1" height="1" fill="#867140" />
<rect x="16" y="12" width="1" height="1" fill="#A0864A" />
<rect x="17" y="12" width="1" height="1" fill="#A0864A" />
<rect x="18" y="12" width="1" height="1" fill="#A0864A" />
<rect x="19" y="12" width="1" height="1" fill="#867140" />
<rect x="20" y="12" width="1" height="1" fill="#867140" />
<rect x="21" y="12" width="1" height="1" fill="#867140" />
<rect x="22" y="12" width="1" height="1" fill="#867140" />
<rect x="23" y="12" width="1" height="1" fill="#867140" />
<rect x="24" y="12" width="1" height="1" fill="#867140" />
<rect x="25" y="12" width="1" height="1" fill="#867140" />
<rect x="26" y="12" width="1" height="1" fill="#867140" />
<rect x="27" y="12" width="1" height="1" fill="#867140" />
<rect x="28" y="12" width="1" height="1" fill="#867140" />
<rect x="29" y="12" width="1" height="1" fill="#867140" />
<rect x="30" y="12" width="1" height="1" fill="#867140" />
<rect x="31" y="12" width="1" height="1" fill="#867140" />
<rect x="32" y="12" width="1" height="1" fill="#867140" />
<rect x="33" y="12" width="1" height="1" fill="#867140" />
<rect x="34" y="12" width="1" height="1" fill="#867140" />
<rect x="35" y="12" width="1" height="1" fill="#867140" />
<rect x="36" y="12" width="1" height="1" fill="#867140" />
<rect x="37" y="12" width="1" height="1" fill="#867140" />
<rect x="38" y="12" width="1" height="1" fill="#5F4200" />
<rect x="7" y="13" width="1" height="1" fill="#5F4200" />
<rect x="8" y="13" width="1" height="1" fill="#A0864A" />
<rect x="9" y="13" width="1" height="1" fill="#867140" />
<rect x="10" y="13" width="1" height="1" fill="#867140" />
<rect x="11" y="13" width="1" height="1" fill="#5F4200" />
<rect x="12" y="13" width="1" height="1" fill="#5F4200" />
<rect x="13" y="13" width="1" height="1" fill="#5F4200" />
<rect x="14" y="13" width="1" height="1" fill="#5F4200" />
<rect x="15" y="13" width="1" height="1" fill="#5F4200" />
<rect x="16" y="13" width="1" height="1" fill="#867140" />
<rect x="17" y="13" width="1" height="1" fill="#867140" />
<rect x="18" y="13" width="1" height="1" fill="#867140" />
<rect x="19" y="13" width="1" height="1" fill="#867140" />
<rect x="20" y="13" width="1" height="1" fill="#867140" />
<rect x="21" y="13" width="1" height="1" fill="#5F4200" />
<rect x="22" y="13" width="1" height="1" fill="#5F4200" />
<rect x="23" y="13" width="1" height="1" fill="#5F4200" />
<rect x="24" y="13" width="1" height="1" fill="#5F4200" />
<rect x="25" y="13" width="1" height="1" fill="#867140" />
<rect x="26" y="13" width="1" height="1" fill="#867140" />
<rect x="27" y="13" width="1" height="1" fill="#867140" />
<rect x="28" y="13" width="1" height="1" fill="#867140" />
<rect x="29" y="13" width="1" height="1" fill="#867140" />
<rect x="30" y="13" width="1" height="1" fill="#867140" />
<rect x="31" y="13" width="1" height="1" fill="#867140" />
<rect x="32" y="13" width="1" height="1" fill="#5F4200" />
<rect x="33" y="13" width="1" height="1" fill="#5F4200" />
<rect x="34" y="13" width="1" height="1" fill="#5F4200" />
<rect x="35" y="13" width="1" height="1" fill="#5F4200" />
<rect x="36" y="13" width="1" height="1" fill="#867140" />
<rect x="37" y="13" width="1" height="1" fill="#867140" />
<rect x="38" y="13" width="1" height="1" fill="#867140" />
<rect x="39" y="13" width="1" height="1" fill="#5F4200" />
<rect x="8" y="14" width="1" height="1" fill="#5F4200" />
<rect x="9" y="14" width="1" height="1" fill="#5F4200" />
<rect x="10" y="14" width="1" height="1" fill="#5F4200" />
<rect x="16" y="14" width="1" height="1" fill="#5F4200" />
<rect x="17" y="14" width="1" height="1" fill="#5F4200" />
<rect x="18" y="14" width="1" height="1" fill="#5F4200" />
<rect x="19" y="14" width="1" height="1" fill="#5F4200" />
<rect x="20" y="14" width="1" height="1" fill="#5F4200" />
<rect x="21" y="14" width="1" height="1" fill="#867857" />
<rect x="22" y="14" width="1" height="1" fill="#867857" />
<rect x="23" y="14" width="1" height="1" fill="#867857" />
<rect x="24" y="14" width="1" height="1" fill="#867857" />
<rect x="25" y="14" width="1" height="1" fill="#5F4200" />
<rect x="26" y="14" width="1" height="1" fill="#5F4200" />
<rect x="27" y="14" width="1" height="1" fill="#5F4200" />
<rect x="28" y="14" width="1" height="1" fill="#5F4200" />
<rect x="29" y="14" width="1" height="1" fill="#5F4200" />
<rect x="30" y="14" width="1" height="1" fill="#5F4200" />
<rect x="31" y="14" width="1" height="1" fill="#5F4200" />
<rect x="36" y="14" width="1" height="1" fill="#5F4200" />
<rect x="37" y="14" width="1" height="1" fill="#5F4200" />
<rect x="38" y="14" width="1" height="1" fill="#5F4200" />
<rect x="19" y="15" width="1" height="1" fill="#5F4200" />
<rect x="20" y="15" width="1" height="1" fill="#8A8270" />
<rect x="21" y="15" width="1" height="1" fill="#8A8270" />
<rect x="22" y="15" width="1" height="1" fill="#8A8270" />
<rect x="23" y="15" width="1" height="1" fill="#867857" />
<rect x="24" y="15" width="1" height="1" fill="#867857" />
<rect x="25" y="15" width="1" height="1" fill="#5F4200" />
<rect x="26" y="15" width="1" height="1" fill="#5F4200" />
<rect x="19" y="16" width="1" height="1" fill="#5F4200" />
<rect x="20" y="16" width="1" height="1" fill="#B1AB9D" />
<rect x="21" y="16" width="1" height="1" fill="#8A8270" />
<rect x="22" y="16" width="1" height="1" fill="#8A8270" />
<rect x="23" y="16" width="1" height="1" fill="#8A8270" />
<rect x="24" y="16" width="1" height="1" fill="#867857" />
<rect x="25" y="16" width="1" height="1" fill="#5F4200" />
<rect x="19" y="17" width="1" height="1" fill="#5F4200" />
<rect x="20" y="17" width="1" height="1" fill="#B1AB9D" />
<rect x="21" y="17" width="1" height="1" fill="#B1AB9D" />
<rect x="22" y="17" width="1" height="1" fill="#8A8270" />
<rect x="23" y="17" width="1" height="1" fill="#8A8270" />
<rect x="24" y="17" width="1" height="1" fill="#8A8270" />
<rect x="25" y="17" width="1" height="1" fill="#5F4200" />
<rect x="19" y="18" width="1" height="1" fill="#5F4200" />
<rect x="20" y="18" width="1" height="1" fill="#B1AB9D" />
<rect x="21" y="18" width="1" height="1" fill="#B1AB9D" />
<rect x="22" y="18" width="1" height="1" fill="#B1AB9D" />
<rect x="23" y="18" width="1" height="1" fill="#8A8270" />
<rect x="24" y="18" width="1" height="1" fill="#8A8270" />
<rect x="25" y="18" width="1" height="1" fill="#867857" />
<rect x="26" y="18" width="1" height="1" fill="#5F4200" />
<rect x="18" y="19" width="1" height="1" fill="#5F4200" />
<rect x="19" y="19" width="1" height="1" fill="#B1AB9D" />
<rect x="20" y="19" width="1" height="1" fill="#B1AB9D" />
<rect x="21" y="19" width="1" height="1" fill="#B1AB9D" />
<rect x="22" y="19" width="1" height="1" fill="#B1AB9D" />
<rect x="23" y="19" width="1" height="1" fill="#B1AB9D" />
<rect x="24" y="19" width="1" height="1" fill="#8A8270" />
<rect x="25" y="19" width="1" height="1" fill="#8A8270" />
<rect x="26" y="19" width="1" height="1" fill="#5F4200" />
<rect x="18" y="20" width="1" height="1" fill="#5F4200" />
<rect x="19" y="20" width="1" height="1" fill="#B1AB9D" />
<rect x="20" y="20" width="1" height="1" fill="#B1AB9D" />
<rect x="21" y="20" width="1" height="1" fill="#B1AB9D" />
<rect x="22" y="20" width="1" height="1" fill="#B1AB9D" />
<rect x="23" y="20" width="1" height="1" fill="#B1AB9D" />
<rect x="24" y="20" width="1" height="1" fill="#B1AB9D" />
<rect x="25" y="20" width="1" height="1" fill="#8A8270" />
<rect x="26" y="20" width="1" height="1" fill="#5F4200" />
<rect x="18" y="21" width="1" height="1" fill="#5F4200" />
<rect x="19" y="21" width="1" height="1" fill="#B1AB9D" />
<rect x="20" y="21" width="1" height="1" fill="#B1AB9D" />
<rect x="21" y="21" width="1" height="1" fill="#B1AB9D" />
<rect x="22" y="21" width="1" height="1" fill="#CFC5AE" />
<rect x="23" y="21" width="1" height="1" fill="#B1AB9D" />
<rect x="24" y="21" width="1" height="1" fill="#B1AB9D" />
<rect x="25" y="21" width="1" height="1" fill="#8A8270" />
<rect x="26" y="21" width="1" height="1" fill="#5F4200" />
<rect x="18" y="22" width="1" height="1" fill="#5F4200" />
<rect x="19" y="22" width="1" height="1" fill="#B1AB9D" />
<rect x="20" y="22" width="1" height="1" fill="#B1AB9D" />
<rect x="21" y="22" width="1" height="1" fill="#B1AB9D" />
<rect x="22" y="22" width="1" height="1" fill="#B1AB9D" />
<rect x="23" y="22" width="1" height="1" fill="#B1AB9D" />
<rect x="24" y="22" width="1" height="1" fill="#B1AB9D" />
<rect x="25" y="22" width="1" height="1" fill="#8A8270" />
<rect x="26" y="22" width="1" height="1" fill="#5F4200" />
<rect x="18" y="23" width="1" height="1" fill="#5F4200" />
<rect x="19" y="23" width="1" height="1" fill="#B1AB9D" />
<rect x="20" y="23" width="1" height="1" fill="#B1AB9D" />
<rect x="21" y="23" width="1" height="1" fill="#B1AB9D" />
<rect x="22" y="23" width="1" height="1" fill="#B1AB9D" />
<rect x="23" y="23" width="1" height="1" fill="#D4C39D" />
<rect x="24" y="23" width="1" height="1" fill="#B1AB9D" />
<rect x="25" y="23" width="1" height="1" fill="#5F4200" />
<rect x="18" y="24" width="1" height="1" fill="#5F4200" />
<rect x="19" y="24" width="1" height="1" fill="#B1AB9D" />
<rect x="20" y="24" width="1" height="1" fill="#B1AB9D" />
<rect x="21" y="24" width="1" height="1" fill="#D4C39D" />
<rect x="22" y="24" width="1" height="1" fill="#D4C39D" />
<rect x="23" y="24" width="1" height="1" fill="#D4C39D" />
<rect x="24" y="24" width="1" height="1" fill="#B1AB9D" />
<rect x="25" y="24" width="1" height="1" fill="#5F4200" />
<rect x="18" y="25" width="1" height="1" fill="#5F4200" />
<rect x="19" y="25" width="1" height="1" fill="#B1AB9D" />
<rect x="20" y="25" width="1" height="1" fill="#B1AB9D" />
<rect x="21" y="25" width="1" height="1" fill="#D4C39D" />
<rect x="22" y="25" width="1" height="1" fill="#D4C39D" />
<rect x="23" y="25" width="1" height="1" fill="#D4C39D" />
<rect x="24" y="25" width="1" height="1" fill="#B1AB9D" />
<rect x="25" y="25" width="1" height="1" fill="#5F4200" />
<rect x="18" y="26" width="1" height="1" fill="#5F4200" />
<rect x="19" y="26" width="1" height="1" fill="#B1AB9D" />
<rect x="20" y="26" width="1" height="1" fill="#D4C39D" />
<rect x="21" y="26" width="1" height="1" fill="#CFC5AE" />
<rect x="22" y="26" width="1" height="1" fill="#D4C39D" />
<rect x="23" y="26" width="1" height="1" fill="#D4C39D" />
<rect x="24" y="26" width="1" height="1" fill="#B1AB9D" />
<rect x="25" y="26" width="1" height="1" fill="#5F4200" />
<rect x="17" y="27" width="1" height="1" fill="#5F4200" />
<rect x="18" y="27" width="1" height="1" fill="#B1AB9D" />
<rect x="19" y="27" width="1" height="1" fill="#B1AB9D" />
<rect x="20" y="27" width="1" height="1" fill="#D4C39D" />
<rect x="21" y="27" width="1" height="1" fill="#CFC5AE" />
<rect x="22" y="27" width="1" height="1" fill="#D4C39D" />
<rect x="23" y="27" width="1" height="1" fill="#B1AB9D" />
<rect x="24" y="27" width="1" height="1" fill="#B1AB9D" />
<rect x="25" y="27" width="1" height="1" fill="#5F4200" />
<rect x="17" y="28" width="1" height="1" fill="#5F4200" />
<rect x="18" y="28" width="1" height="1" fill="#B1AB9D" />
<rect x="19" y="28" width="1" height="1" fill="#B1AB9D" />
<rect x="20" y="28" width="1" height="1" fill="#CFC5AE" />
<rect x="21" y="28" width="1" height="1" fill="#CFC5AE" />
<rect x="22" y="28" width="1" height="1" fill="#B1AB9D" />
<rect x="23" y="28" width="1" height="1" fill="#B1AB9D" />
<rect x="24" y="28" width="1" height="1" fill="#5F4200" />
<rect x="17" y="29" width="1" height="1" fill="#5F4200" />
<rect x="18" y="29" width="1" height="1" fill="#B1AB9D" />
<rect x="19" y="29" width="1" height="1" fill="#B1AB9D" />
<rect x="20" y="29" width="1" height="1" fill="#D4C39D" />
<rect x="21" y="29" width="1" height="1" fill="#CFC5AE" />
<rect x="22" y="29" width="1" height="1" fill="#B1AB9D" />
<rect x="23" y="29" width="1" height="1" fill="#B1AB9D" />
<rect x="24" y="29" width="1" height="1" fill="#5F4200" />
<rect x="17" y="30" width="1" height="1" fill="#5F4200" />
<rect x="18" y="30" width="1" height="1" fill="#B1AB9D" />
<rect x="19" y="30" width="1" height="1" fill="#B1AB9D" />
<rect x="20" y="30" width="1" height="1" fill="#D4C39D" />
<rect x="21" y="30" width="1" height="1" fill="#CFC5AE" />
<rect x="22" y="30" width="1" height="1" fill="#B1AB9D" />
<rect x="23" y="30" width="1" height="1" fill="#B1AB9D" />
<rect x="24" y="30" width="1" height="1" fill="#5F4200" />
<rect x="17" y="31" width="1" height="1" fill="#5F4200" />
<rect x="18" y="31" width="1" height="1" fill="#B1AB9D" />
<rect x="19" y="31" width="1" height="1" fill="#D4C39D" />
<rect x="20" y="31" width="1" height="1" fill="#D4C39D" />
<rect x="21" y="31" width="1" height="1" fill="#D4C39D" />
<rect x="22" y="31" width="1" height="1" fill="#B1AB9D" />
<rect x="23" y="31" width="1" height="1" fill="#B1AB9D" />
<rect x="24" y="31" width="1" height="1" fill="#5F4200" />
<rect x="16" y="32" width="1" height="1" fill="#5F4200" />
<rect x="17" y="32" width="1" height="1" fill="#B1AB9D" />
<rect x="18" y="32" width="1" height="1" fill="#B1AB9D" />
<rect x="19" y="32" width="1" height="1" fill="#D4C39D" />
<rect x="20" y="32" width="1" height="1" fill="#CFC5AE" />
<rect x="21" y="32" width="1" height="1" fill="#D4C39D" />
<rect x="22" y="32" width="1" height="1" fill="#B1AB9D" />
<rect x="23" y="32" width="1" height="1" fill="#B1AB9D" />
<rect x="24" y="32" width="1" height="1" fill="#5F4200" />
<rect x="16" y="33" width="1" height="1" fill="#5F4200" />
<rect x="17" y="33" width="1" height="1" fill="#B1AB9D" />
<rect x="18" y="33" width="1" height="1" fill="#B1AB9D" />
<rect x="19" y="33" width="1" height="1" fill="#D4C39D" />
<rect x="20" y="33" width="1" height="1" fill="#CFC5AE" />
<rect x="21" y="33" width="1" height="1" fill="#D4C39D" />
<rect x="22" y="33" width="1" height="1" fill="#B1AB9D" />
<rect x="23" y="33" width="1" height="1" fill="#B1AB9D" />
<rect x="24" y="33" width="1" height="1" fill="#5F4200" />
<rect x="16" y="34" width="1" height="1" fill="#5F4200" />
<rect x="17" y="34" width="1" height="1" fill="#B1AB9D" />
<rect x="18" y="34" width="1" height="1" fill="#B1AB9D" />
<rect x="19" y="34" width="1" height="1" fill="#CFC5AE" />
<rect x="20" y="34" width="1" height="1" fill="#CFC5AE" />
<rect x="21" y="34" width="1" height="1" fill="#D4C39D" />
<rect x="22" y="34" width="1" height="1" fill="#B1AB9D" />
<rect x="23" y="34" width="1" height="1" fill="#B1AB9D" />
<rect x="24" y="34" width="1" height="1" fill="#5F4200" />
<rect x="15" y="35" width="1" height="1" fill="#5F4200" />
<rect x="16" y="35" width="1" height="1" fill="#B1AB9D" />
<rect x="17" y="35" width="1" height="1" fill="#B1AB9D" />
<rect x="18" y="35" width="1" height="1" fill="#D4C39D" />
<rect x="19" y="35" width="1" height="1" fill="#D4C39D" />
<rect x="20" y="35" width="1" height="1" fill="#D4C39D" />
<rect x="21" y="35" width="1" height="1" fill="#B1AB9D" />
<rect x="22" y="35" width="1" height="1" fill="#B1AB9D" />
<rect x="23" y="35" width="1" height="1" fill="#B1AB9D" />
<rect x="24" y="35" width="1" height="1" fill="#5F4200" />
<rect x="15" y="36" width="1" height="1" fill="#5F4200" />
<rect x="16" y="36" width="1" height="1" fill="#B1AB9D" />
<rect x="17" y="36" width="1" height="1" fill="#B1AB9D" />
<rect x="18" y="36" width="1" height="1" fill="#D4C39D" />
<rect x="19" y="36" width="1" height="1" fill="#D4C39D" />
<rect x="20" y="36" width="1" height="1" fill="#D4C39D" />
<rect x="21" y="36" width="1" height="1" fill="#B1AB9D" />
<rect x="22" y="36" width="1" height="1" fill="#B1AB9D" />
<rect x="23" y="36" width="1" height="1" fill="#B1AB9D" />
<rect x="24" y="36" width="1" height="1" fill="#5F4200" />
<rect x="15" y="37" width="1" height="1" fill="#5F4200" />
<rect x="16" y="37" width="1" height="1" fill="#B1AB9D" />
<rect x="17" y="37" width="1" height="1" fill="#B1AB9D" />
<rect x="18" y="37" width="1" height="1" fill="#D4C39D" />
<rect x="19" y="37" width="1" height="1" fill="#CFC5AE" />
<rect x="20" y="37" width="1" height="1" fill="#D4C39D" />
<rect x="21" y="37" width="1" height="1" fill="#B1AB9D" />
<rect x="22" y="37" width="1" height="1" fill="#B1AB9D" />
<rect x="23" y="37" width="1" height="1" fill="#B1AB9D" />
<rect x="24" y="37" width="1" height="1" fill="#5F4200" />
<rect x="14" y="38" width="1" height="1" fill="#5F4200" />
<rect x="15" y="38" width="1" height="1" fill="#B1AB9D" />
<rect x="16" y="38" width="1" height="1" fill="#B1AB9D" />
<rect x="17" y="38" width="1" height="1" fill="#D4C39D" />
<rect x="18" y="38" width="1" height="1" fill="#CFC5AE" />
<rect x="19" y="38" width="1" height="1" fill="#CFC5AE" />
<rect x="20" y="38" width="1" height="1" fill="#D4C39D" />
<rect x="21" y="38" width="1" height="1" fill="#B1AB9D" />
<rect x="22" y="38" width="1" height="1" fill="#B1AB9D" />
<rect x="23" y="38" width="1" height="1" fill="#B1AB9D" />
<rect x="24" y="38" width="1" height="1" fill="#5F4200" />
<rect x="14" y="39" width="1" height="1" fill="#5F4200" />
<rect x="15" y="39" width="1" height="1" fill="#B1AB9D" />
<rect x="16" y="39" width="1" height="1" fill="#B1AB9D" />
<rect x="17" y="39" width="1" height="1" fill="#D4C39D" />
<rect x="18" y="39" width="1" height="1" fill="#CFC5AE" />
<rect x="19" y="39" width="1" height="1" fill="#CFC5AE" />
<rect x="20" y="39" width="1" height="1" fill="#D4C39D" />
<rect x="21" y="39" width="1" height="1" fill="#B1AB9D" />
<rect x="22" y="39" width="1" height="1" fill="#B1AB9D" />
<rect x="23" y="39" width="1" height="1" fill="#B1AB9D" />
<rect x="24" y="39" width="1" height="1" fill="#5F4200" />
<rect x="14" y="40" width="1" height="1" fill="#5F4200" />
<rect x="15" y="40" width="1" height="1" fill="#B1AB9D" />
<rect x="16" y="40" width="1" height="1" fill="#B1AB9D" />
<rect x="17" y="40" width="1" height="1" fill="#D4C39D" />
<rect x="18" y="40" width="1" height="1" fill="#D4C39D" />
<rect x="19" y="40" width="1" height="1" fill="#D4C39D" />
<rect x="20" y="40" width="1" height="1" fill="#D4C39D" />
<rect x="21" y="40" width="1" height="1" fill="#B1AB9D" />
<rect x="22" y="40" width="1" height="1" fill="#B1AB9D" />
<rect x="23" y="40" width="1" height="1" fill="#5F4200" />
<rect x="14" y="41" width="1" height="1" fill="#5F4200" />
<rect x="15" y="41" width="1" height="1" fill="#B1AB9D" />
<rect x="16" y="41" width="1" height="1" fill="#B1AB9D" />
<rect x="17" y="41" width="1" height="1" fill="#D4C39D" />
<rect x="18" y="41" width="1" height="1" fill="#B1AB9D" />
<rect x="19" y="41" width="1" height="1" fill="#B1AB9D" />
<rect x="20" y="41" width="1" height="1" fill="#B1AB9D" />
<rect x="21" y="41" width="1" height="1" fill="#B1AB9D" />
<rect x="22" y="41" width="1" height="1" fill="#5F4200" />
<rect x="14" y="42" width="1" height="1" fill="#5F4200" />
<rect x="15" y="42" width="1" height="1" fill="#B1AB9D" />
<rect x="16" y="42" width="1" height="1" fill="#B1AB9D" />
<rect x="17" y="42" width="1" height="1" fill="#D4C39D" />
<rect x="18" y="42" width="1" height="1" fill="#B1AB9D" />
<rect x="19" y="42" width="1" height="1" fill="#B1AB9D" />
<rect x="20" y="42" width="1" height="1" fill="#B1AB9D" />
<rect x="21" y="42" width="1" height="1" fill="#B1AB9D" />
<rect x="22" y="42" width="1" height="1" fill="#5F4200" />
<rect x="15" y="43" width="1" height="1" fill="#5F4200" />
<rect x="16" y="43" width="1" height="1" fill="#B1AB9D" />
<rect x="17" y="43" width="1" height="1" fill="#B1AB9D" />
<rect x="18" y="43" width="1" height="1" fill="#B1AB9D" />
<rect x="19" y="43" width="1" height="1" fill="#B1AB9D" />
<rect x="20" y="43" width="1" height="1" fill="#B1AB9D" />
<rect x="21" y="43" width="1" height="1" fill="#5F4200" />
<rect x="15" y="44" width="1" height="1" fill="#5F4200" />
<rect x="16" y="44" width="1" height="1" fill="#B1AB9D" />
<rect x="17" y="44" width="1" height="1" fill="#B1AB9D" />
<rect x="18" y="44" width="1" height="1" fill="#B1AB9D" />
<rect x="19" y="44" width="1" height="1" fill="#B1AB9D" />
<rect x="20" y="44" width="1" height="1" fill="#B1AB9D" />
<rect x="21" y="44" width="1" height="1" fill="#5F4200" />
<rect x="16" y="45" width="1" height="1" fill="#5F4200" />
<rect x="17" y="45" width="1" height="1" fill="#5F4200" />
<rect x="18" y="45" width="1" height="1" fill="#5F4200" />
<rect x="19" y="45" width="1" height="1" fill="#5F4200" />
<rect x="20" y="45" width="1" height="1" fill="#5F4200" />
</svg>