<?xml version="1.0" encoding="UTF-8" ?>
<svg version="1.1" width="32" height="32" xmlns="http://www.w3.org/2000/svg" shape-rendering="crispEdges">
<rect x="14" y="10" width="1" height="1" fill="#FFB795" />
<rect x="15" y="10" width="1" height="1" fill="#FFB795" />
<rect x="16" y="10" width="1" height="1" fill="#FFB795" />
<rect x="17" y="10" width="1" height="1" fill="#FFB795" />
<rect x="14" y="11" width="1" height="1" fill="#111111" />
<rect x="15" y="11" width="1" height="1" fill="#FFB795" />
<rect x="16" y="11" width="1" height="1" fill="#FFB795" />
<rect x="17" y="11" width="1" height="1" fill="#111111" />
<rect x="14" y="12" width="1" height="1" fill="#FFB795" />
<rect x="15" y="12" width="1" height="1" fill="#FFB795" />
<rect x="16" y="12" width="1" height="1" fill="#FFB795" />
<rect x="17" y="12" width="1" height="1" fill="#FFB795" />
<rect x="14" y="13" width="1" height="1" fill="#FFB795" />
<rect x="15" y="13" width="1" height="1" fill="#FFB795" />
<rect x="16" y="13" width="1" height="1" fill="#FFB795" />
<rect x="17" y="13" width="1" height="1" fill="#FFB795" />
<rect x="12" y="29" width="1" height="1" fill="#FFB795" />
<rect x="14" y="29" width="1" height="1" fill="#FFB795" />
<rect x="18" y="29" width="1" height="1" fill="#FFB795" />
<rect x="20" y="29" width="1" height="1" fill="#FFB795" />
<rect x="10" y="30" width="1" height="1" fill="#FFB795" />
<rect x="11" y="30" width="1" height="1" fill="#FFB795" />
<rect x="12" y="30" width="1" height="1" fill="#FFB795" />
<rect x="13" y="30" width="1" height="1" fill="#FFB795" />
<rect x="14" y="30" width="1" height="1" fill="#FFB795" />
<rect x="18" y="30" width="1" height="1" fill="#FFB795" />
<rect x="19" y="30" width="1" height="1" fill="#FFB795" />
<rect x="20" y="30" width="1" height="1" fill="#FFB795" />
<rect x="21" y="30" width="1" height="1" fill="#FFB795" />
<rect x="22" y="30" width="1" height="1" fill="#FFB795" />
</svg>