<?xml version="1.0" encoding="UTF-8" ?>
<svg version="1.1" width="32" height="32" xmlns="http://www.w3.org/2000/svg" shape-rendering="crispEdges">
<rect x="8" y="10" width="1" height="1" fill="#D4C6AA" />
<rect x="7" y="11" width="1" height="1" fill="#D4C6AA" />
<rect x="8" y="11" width="1" height="1" fill="#706763" />
<rect x="9" y="11" width="1" height="1" fill="#D4C6AA" />
<rect x="6" y="12" width="1" height="1" fill="#D4C6AA" />
<rect x="8" y="12" width="1" height="1" fill="#D4C6AA" />
<rect x="9" y="12" width="1" height="1" fill="#706763" />
<rect x="10" y="12" width="1" height="1" fill="#301001" />
<rect x="22" y="12" width="1" height="1" fill="#6C5019" />
<rect x="5" y="13" width="1" height="1" fill="#D4C6AA" />
<rect x="6" y="13" width="1" height="1" fill="#706763" />
<rect x="7" y="13" width="1" height="1" fill="#D4C6AA" />
<rect x="9" y="13" width="1" height="1" fill="#301001" />
<rect x="10" y="13" width="1" height="1" fill="#A47E34" />
<rect x="11" y="13" width="1" height="1" fill="#301001" />
<rect x="22" y="13" width="1" height="1" fill="#A47E34" />
<rect x="23" y="13" width="1" height="1" fill="#6C5019" />
<rect x="6" y="14" width="1" height="1" fill="#D4C6AA" />
<rect x="7" y="14" width="1" height="1" fill="#706763" />
<rect x="8" y="14" width="1" height="1" fill="#301001" />
<rect x="9" y="14" width="1" height="1" fill="#A47E34" />
<rect x="10" y="14" width="1" height="1" fill="#A47E34" />
<rect x="11" y="14" width="1" height="1" fill="#A47E34" />
<rect x="12" y="14" width="1" height="1" fill="#301001" />
<rect x="14" y="14" width="1" height="1" fill="#301001" />
<rect x="15" y="14" width="1" height="1" fill="#301001" />
<rect x="16" y="14" width="1" height="1" fill="#301001" />
<rect x="17" y="14" width="1" height="1" fill="#301001" />
<rect x="22" y="14" width="1" height="1" fill="#D4C6AA" />
<rect x="23" y="14" width="1" height="1" fill="#A47E34" />
<rect x="24" y="14" width="1" height="1" fill="#6C5019" />
<rect x="7" y="15" width="1" height="1" fill="#301001" />
<rect x="8" y="15" width="1" height="1" fill="#A47E34" />
<rect x="9" y="15" width="1" height="1" fill="#A47E34" />
<rect x="10" y="15" width="1" height="1" fill="#A47E34" />
<rect x="11" y="15" width="1" height="1" fill="#A47E34" />
<rect x="12" y="15" width="1" height="1" fill="#301001" />
<rect x="13" y="15" width="1" height="1" fill="#301001" />
<rect x="14" y="15" width="1" height="1" fill="#301001" />
<rect x="15" y="15" width="1" height="1" fill="#3E9734" />
<rect x="16" y="15" width="1" height="1" fill="#3E9734" />
<rect x="17" y="15" width="1" height="1" fill="#3E9734" />
<rect x="18" y="15" width="1" height="1" fill="#301001" />
<rect x="19" y="15" width="1" height="1" fill="#301001" />
<rect x="20" y="15" width="1" height="1" fill="#301001" />
<rect x="22" y="15" width="1" height="1" fill="#D4C6AA" />
<rect x="23" y="15" width="1" height="1" fill="#A47E34" />
<rect x="24" y="15" width="1" height="1" fill="#6C5019" />
<rect x="8" y="16" width="1" height="1" fill="#301001" />
<rect x="9" y="16" width="1" height="1" fill="#A47E34" />
<rect x="10" y="16" width="1" height="1" fill="#301001" />
<rect x="11" y="16" width="1" height="1" fill="#301001" />
<rect x="12" y="16" width="1" height="1" fill="#3E9734" />
<rect x="13" y="16" width="1" height="1" fill="#3E9734" />
<rect x="14" y="16" width="1" height="1" fill="#3E9734" />
<rect x="15" y="16" width="1" height="1" fill="#3E9734" />
<rect x="16" y="16" width="1" height="1" fill="#301001" />
<rect x="17" y="16" width="1" height="1" fill="#14630B" />
<rect x="18" y="16" width="1" height="1" fill="#14630B" />
<rect x="19" y="16" width="1" height="1" fill="#14630B" />
<rect x="20" y="16" width="1" height="1" fill="#14630B" />
<rect x="21" y="16" width="1" height="1" fill="#301001" />
<rect x="22" y="16" width="1" height="1" fill="#301001" />
<rect x="23" y="16" width="1" height="1" fill="#301001" />
<rect x="24" y="16" width="1" height="1" fill="#A47E34" />
<rect x="25" y="16" width="1" height="1" fill="#6C5019" />
<rect x="9" y="17" width="1" height="1" fill="#301001" />
<rect x="10" y="17" width="1" height="1" fill="#3E9734" />
<rect x="11" y="17" width="1" height="1" fill="#3E9734" />
<rect x="12" y="17" width="1" height="1" fill="#3E9734" />
<rect x="13" y="17" width="1" height="1" fill="#3E9734" />
<rect x="14" y="17" width="1" height="1" fill="#14630B" />
<rect x="15" y="17" width="1" height="1" fill="#301001" />
<rect x="16" y="17" width="1" height="1" fill="#8F4421" />
<rect x="17" y="17" width="1" height="1" fill="#301001" />
<rect x="18" y="17" width="1" height="1" fill="#14630B" />
<rect x="19" y="17" width="1" height="1" fill="#14630B" />
<rect x="20" y="17" width="1" height="1" fill="#14630B" />
<rect x="21" y="17" width="1" height="1" fill="#14630B" />
<rect x="22" y="17" width="1" height="1" fill="#14630B" />
<rect x="23" y="17" width="1" height="1" fill="#301001" />
<rect x="24" y="17" width="1" height="1" fill="#A47E34" />
<rect x="25" y="17" width="1" height="1" fill="#6C5019" />
<rect x="9" y="18" width="1" height="1" fill="#301001" />
<rect x="10" y="18" width="1" height="1" fill="#14630B" />
<rect x="11" y="18" width="1" height="1" fill="#14630B" />
<rect x="12" y="18" width="1" height="1" fill="#14630B" />
<rect x="13" y="18" width="1" height="1" fill="#14630B" />
<rect x="14" y="18" width="1" height="1" fill="#14630B" />
<rect x="15" y="18" width="1" height="1" fill="#301001" />
<rect x="16" y="18" width="1" height="1" fill="#8F4421" />
<rect x="17" y="18" width="1" height="1" fill="#301001" />
<rect x="18" y="18" width="1" height="1" fill="#14630B" />
<rect x="19" y="18" width="1" height="1" fill="#14630B" />
<rect x="20" y="18" width="1" height="1" fill="#14630B" />
<rect x="21" y="18" width="1" height="1" fill="#14630B" />
<rect x="22" y="18" width="1" height="1" fill="#14630B" />
<rect x="23" y="18" width="1" height="1" fill="#301001" />
<rect x="24" y="18" width="1" height="1" fill="#A47E34" />
<rect x="25" y="18" width="1" height="1" fill="#6C5019" />
<rect x="9" y="19" width="1" height="1" fill="#301001" />
<rect x="10" y="19" width="1" height="1" fill="#14630B" />
<rect x="11" y="19" width="1" height="1" fill="#14630B" />
<rect x="12" y="19" width="1" height="1" fill="#14630B" />
<rect x="13" y="19" width="1" height="1" fill="#14630B" />
<rect x="14" y="19" width="1" height="1" fill="#14630B" />
<rect x="15" y="19" width="1" height="1" fill="#301001" />
<rect x="16" y="19" width="1" height="1" fill="#8F4421" />
<rect x="17" y="19" width="1" height="1" fill="#301001" />
<rect x="18" y="19" width="1" height="1" fill="#14630B" />
<rect x="19" y="19" width="1" height="1" fill="#14630B" />
<rect x="20" y="19" width="1" height="1" fill="#14630B" />
<rect x="21" y="19" width="1" height="1" fill="#14630B" />
<rect x="22" y="19" width="1" height="1" fill="#14630B" />
<rect x="23" y="19" width="1" height="1" fill="#301001" />
<rect x="24" y="19" width="1" height="1" fill="#A47E34" />
<rect x="25" y="19" width="1" height="1" fill="#6C5019" />
<rect x="9" y="20" width="1" height="1" fill="#301001" />
<rect x="10" y="20" width="1" height="1" fill="#14630B" />
<rect x="11" y="20" width="1" height="1" fill="#301001" />
<rect x="12" y="20" width="1" height="1" fill="#14630B" />
<rect x="13" y="20" width="1" height="1" fill="#14630B" />
<rect x="14" y="20" width="1" height="1" fill="#301001" />
<rect x="15" y="20" width="1" height="1" fill="#8F4421" />
<rect x="16" y="20" width="1" height="1" fill="#8F4421" />
<rect x="17" y="20" width="1" height="1" fill="#8F4421" />
<rect x="18" y="20" width="1" height="1" fill="#301001" />
<rect x="19" y="20" width="1" height="1" fill="#14630B" />
<rect x="20" y="20" width="1" height="1" fill="#194E13" />
<rect x="21" y="20" width="1" height="1" fill="#301001" />
<rect x="22" y="20" width="1" height="1" fill="#194E13" />
<rect x="23" y="20" width="1" height="1" fill="#301001" />
<rect x="24" y="20" width="1" height="1" fill="#A47E34" />
<rect x="25" y="20" width="1" height="1" fill="#6C5019" />
<rect x="9" y="21" width="1" height="1" fill="#301001" />
<rect x="10" y="21" width="1" height="1" fill="#14630B" />
<rect x="11" y="21" width="1" height="1" fill="#301001" />
<rect x="12" y="21" width="1" height="1" fill="#14630B" />
<rect x="13" y="21" width="1" height="1" fill="#194E13" />
<rect x="14" y="21" width="1" height="1" fill="#301001" />
<rect x="15" y="21" width="1" height="1" fill="#8F4421" />
<rect x="16" y="21" width="1" height="1" fill="#8F4421" />
<rect x="17" y="21" width="1" height="1" fill="#8F4421" />
<rect x="18" y="21" width="1" height="1" fill="#301001" />
<rect x="19" y="21" width="1" height="1" fill="#194E13" />
<rect x="20" y="21" width="1" height="1" fill="#194E13" />
<rect x="21" y="21" width="1" height="1" fill="#301001" />
<rect x="22" y="21" width="1" height="1" fill="#194E13" />
<rect x="23" y="21" width="1" height="1" fill="#301001" />
<rect x="24" y="21" width="1" height="1" fill="#A47E34" />
<rect x="25" y="21" width="1" height="1" fill="#6C5019" />
<rect x="9" y="22" width="1" height="1" fill="#301001" />
<rect x="10" y="22" width="1" height="1" fill="#194E13" />
<rect x="11" y="22" width="1" height="1" fill="#301001" />
<rect x="12" y="22" width="1" height="1" fill="#194E13" />
<rect x="13" y="22" width="1" height="1" fill="#194E13" />
<rect x="14" y="22" width="1" height="1" fill="#301001" />
<rect x="15" y="22" width="1" height="1" fill="#8F4421" />
<rect x="16" y="22" width="1" height="1" fill="#8F4421" />
<rect x="17" y="22" width="1" height="1" fill="#8F4421" />
<rect x="18" y="22" width="1" height="1" fill="#301001" />
<rect x="19" y="22" width="1" height="1" fill="#194E13" />
<rect x="20" y="22" width="1" height="1" fill="#194E13" />
<rect x="21" y="22" width="1" height="1" fill="#301001" />
<rect x="22" y="22" width="1" height="1" fill="#194E13" />
<rect x="23" y="22" width="1" height="1" fill="#301001" />
<rect x="24" y="22" width="1" height="1" fill="#A47E34" />
<rect x="25" y="22" width="1" height="1" fill="#6C5019" />
<rect x="10" y="23" width="1" height="1" fill="#301001" />
<rect x="11" y="23" width="1" height="1" fill="#301001" />
<rect x="12" y="23" width="1" height="1" fill="#194E13" />
<rect x="13" y="23" width="1" height="1" fill="#301001" />
<rect x="14" y="23" width="1" height="1" fill="#8F4421" />
<rect x="15" y="23" width="1" height="1" fill="#301001" />
<rect x="16" y="23" width="1" height="1" fill="#301001" />
<rect x="17" y="23" width="1" height="1" fill="#301001" />
<rect x="18" y="23" width="1" height="1" fill="#8F4421" />
<rect x="19" y="23" width="1" height="1" fill="#301001" />
<rect x="20" y="23" width="1" height="1" fill="#194E13" />
<rect x="21" y="23" width="1" height="1" fill="#301001" />
<rect x="22" y="23" width="1" height="1" fill="#301001" />
<rect x="24" y="23" width="1" height="1" fill="#A47E34" />
<rect x="25" y="23" width="1" height="1" fill="#6C5019" />
<rect x="11" y="24" width="1" height="1" fill="#301001" />
<rect x="12" y="24" width="1" height="1" fill="#301001" />
<rect x="13" y="24" width="1" height="1" fill="#301001" />
<rect x="14" y="24" width="1" height="1" fill="#301001" />
<rect x="15" y="24" width="1" height="1" fill="#8F4421" />
<rect x="16" y="24" width="1" height="1" fill="#8F4421" />
<rect x="17" y="24" width="1" height="1" fill="#8F4421" />
<rect x="18" y="24" width="1" height="1" fill="#301001" />
<rect x="19" y="24" width="1" height="1" fill="#301001" />
<rect x="20" y="24" width="1" height="1" fill="#301001" />
<rect x="21" y="24" width="1" height="1" fill="#301001" />
<rect x="22" y="24" width="1" height="1" fill="#D4C6AA" />
<rect x="24" y="24" width="1" height="1" fill="#A47E34" />
<rect x="25" y="24" width="1" height="1" fill="#6C5019" />
<rect x="12" y="25" width="1" height="1" fill="#301001" />
<rect x="13" y="25" width="1" height="1" fill="#8F4421" />
<rect x="14" y="25" width="1" height="1" fill="#632D14" />
<rect x="15" y="25" width="1" height="1" fill="#632D14" />
<rect x="16" y="25" width="1" height="1" fill="#301001" />
<rect x="17" y="25" width="1" height="1" fill="#8F4421" />
<rect x="18" y="25" width="1" height="1" fill="#8F4421" />
<rect x="19" y="25" width="1" height="1" fill="#632D14" />
<rect x="20" y="25" width="1" height="1" fill="#301001" />
<rect x="21" y="25" width="1" height="1" fill="#301001" />
<rect x="22" y="25" width="1" height="1" fill="#D4C6AA" />
<rect x="23" y="25" width="1" height="1" fill="#A47E34" />
<rect x="24" y="25" width="1" height="1" fill="#6C5019" />
<rect x="12" y="26" width="1" height="1" fill="#301001" />
<rect x="13" y="26" width="1" height="1" fill="#632D14" />
<rect x="14" y="26" width="1" height="1" fill="#632D14" />
<rect x="15" y="26" width="1" height="1" fill="#301001" />
<rect x="17" y="26" width="1" height="1" fill="#301001" />
<rect x="18" y="26" width="1" height="1" fill="#632D14" />
<rect x="19" y="26" width="1" height="1" fill="#632D14" />
<rect x="20" y="26" width="1" height="1" fill="#301001" />
<rect x="22" y="26" width="1" height="1" fill="#D4C6AA" />
<rect x="23" y="26" width="1" height="1" fill="#A47E34" />
<rect x="24" y="26" width="1" height="1" fill="#6C5019" />
<rect x="12" y="27" width="1" height="1" fill="#301001" />
<rect x="13" y="27" width="1" height="1" fill="#632D14" />
<rect x="14" y="27" width="1" height="1" fill="#301001" />
<rect x="17" y="27" width="1" height="1" fill="#301001" />
<rect x="18" y="27" width="1" height="1" fill="#632D14" />
<rect x="19" y="27" width="1" height="1" fill="#632D14" />
<rect x="20" y="27" width="1" height="1" fill="#301001" />
<rect x="22" y="27" width="1" height="1" fill="#A47E34" />
<rect x="23" y="27" width="1" height="1" fill="#6C5019" />
<rect x="12" y="28" width="1" height="1" fill="#301001" />
<rect x="13" y="28" width="1" height="1" fill="#632D14" />
<rect x="14" y="28" width="1" height="1" fill="#301001" />
<rect x="17" y="28" width="1" height="1" fill="#301001" />
<rect x="18" y="28" width="1" height="1" fill="#301001" />
<rect x="19" y="28" width="1" height="1" fill="#632D14" />
<rect x="20" y="28" width="1" height="1" fill="#301001" />
<rect x="22" y="28" width="1" height="1" fill="#6C5019" />
<rect x="10" y="29" width="1" height="1" fill="#301001" />
<rect x="11" y="29" width="1" height="1" fill="#301001" />
<rect x="13" y="29" width="1" height="1" fill="#301001" />
<rect x="15" y="29" width="1" height="1" fill="#301001" />
<rect x="17" y="29" width="1" height="1" fill="#301001" />
<rect x="19" y="29" width="1" height="1" fill="#301001" />
<rect x="21" y="29" width="1" height="1" fill="#301001" />
<rect x="22" y="29" width="1" height="1" fill="#301001" />
<rect x="9" y="30" width="1" height="1" fill="#301001" />
<rect x="15" y="30" width="1" height="1" fill="#301001" />
<rect x="17" y="30" width="1" height="1" fill="#301001" />
<rect x="23" y="30" width="1" height="1" fill="#301001" />
<rect x="10" y="31" width="1" height="1" fill="#301001" />
<rect x="11" y="31" width="1" height="1" fill="#301001" />
<rect x="12" y="31" width="1" height="1" fill="#301001" />
<rect x="13" y="31" width="1" height="1" fill="#301001" />
<rect x="14" y="31" width="1" height="1" fill="#301001" />
<rect x="18" y="31" width="1" height="1" fill="#301001" />
<rect x="19" y="31" width="1" height="1" fill="#301001" />
<rect x="20" y="31" width="1" height="1" fill="#301001" />
<rect x="21" y="31" width="1" height="1" fill="#301001" />
<rect x="22" y="31" width="1" height="1" fill="#301001" />
</svg>