<?xml version="1.0" encoding="UTF-8" ?>
<svg version="1.1" width="32" height="32" xmlns="http://www.w3.org/2000/svg" shape-rendering="crispEdges">
<rect x="12" y="6" width="1" height="1" fill="#301001" />
<rect x="13" y="6" width="1" height="1" fill="#301001" />
<rect x="14" y="6" width="1" height="1" fill="#301001" />
<rect x="15" y="6" width="1" height="1" fill="#301001" />
<rect x="16" y="6" width="1" height="1" fill="#301001" />
<rect x="17" y="6" width="1" height="1" fill="#301001" />
<rect x="18" y="6" width="1" height="1" fill="#301001" />
<rect x="19" y="6" width="1" height="1" fill="#301001" />
<rect x="10" y="7" width="1" height="1" fill="#301001" />
<rect x="11" y="7" width="1" height="1" fill="#301001" />
<rect x="12" y="7" width="1" height="1" fill="#A08437" />
<rect x="13" y="7" width="1" height="1" fill="#A08437" />
<rect x="14" y="7" width="1" height="1" fill="#A08437" />
<rect x="15" y="7" width="1" height="1" fill="#A08437" />
<rect x="16" y="7" width="1" height="1" fill="#A08437" />
<rect x="17" y="7" width="1" height="1" fill="#825F00" />
<rect x="18" y="7" width="1" height="1" fill="#825F00" />
<rect x="19" y="7" width="1" height="1" fill="#825F00" />
<rect x="20" y="7" width="1" height="1" fill="#301001" />
<rect x="9" y="8" width="1" height="1" fill="#301001" />
<rect x="10" y="8" width="1" height="1" fill="#A08437" />
<rect x="11" y="8" width="1" height="1" fill="#A08437" />
<rect x="12" y="8" width="1" height="1" fill="#A08437" />
<rect x="13" y="8" width="1" height="1" fill="#825F00" />
<rect x="14" y="8" width="1" height="1" fill="#825F00" />
<rect x="15" y="8" width="1" height="1" fill="#301001" />
<rect x="16" y="8" width="1" height="1" fill="#301001" />
<rect x="17" y="8" width="1" height="1" fill="#301001" />
<rect x="18" y="8" width="1" height="1" fill="#301001" />
<rect x="19" y="8" width="1" height="1" fill="#825F00" />
<rect x="20" y="8" width="1" height="1" fill="#825F00" />
<rect x="21" y="8" width="1" height="1" fill="#301001" />
<rect x="8" y="9" width="1" height="1" fill="#301001" />
<rect x="9" y="9" width="1" height="1" fill="#A08437" />
<rect x="10" y="9" width="1" height="1" fill="#A08437" />
<rect x="11" y="9" width="1" height="1" fill="#825F00" />
<rect x="12" y="9" width="1" height="1" fill="#825F00" />
<rect x="13" y="9" width="1" height="1" fill="#301001" />
<rect x="14" y="9" width="1" height="1" fill="#301001" />
<rect x="19" y="9" width="1" height="1" fill="#301001" />
<rect x="20" y="9" width="1" height="1" fill="#301001" />
<rect x="21" y="9" width="1" height="1" fill="#825F00" />
<rect x="22" y="9" width="1" height="1" fill="#301001" />
<rect x="8" y="10" width="1" height="1" fill="#301001" />
<rect x="9" y="10" width="1" height="1" fill="#A08437" />
<rect x="10" y="10" width="1" height="1" fill="#825F00" />
<rect x="11" y="10" width="1" height="1" fill="#825F00" />
<rect x="12" y="10" width="1" height="1" fill="#301001" />
<rect x="21" y="10" width="1" height="1" fill="#301001" />
<rect x="22" y="10" width="1" height="1" fill="#825F00" />
<rect x="23" y="10" width="1" height="1" fill="#301001" />
<rect x="8" y="11" width="1" height="1" fill="#301001" />
<rect x="9" y="11" width="1" height="1" fill="#825F00" />
<rect x="10" y="11" width="1" height="1" fill="#825F00" />
<rect x="11" y="11" width="1" height="1" fill="#825F00" />
<rect x="12" y="11" width="1" height="1" fill="#301001" />
<rect x="21" y="11" width="1" height="1" fill="#301001" />
<rect x="22" y="11" width="1" height="1" fill="#825F00" />
<rect x="23" y="11" width="1" height="1" fill="#825F00" />
<rect x="24" y="11" width="1" height="1" fill="#301001" />
<rect x="9" y="12" width="1" height="1" fill="#301001" />
<rect x="10" y="12" width="1" height="1" fill="#825F00" />
<rect x="11" y="12" width="1" height="1" fill="#825F00" />
<rect x="12" y="12" width="1" height="1" fill="#301001" />
<rect x="21" y="12" width="1" height="1" fill="#301001" />
<rect x="22" y="12" width="1" height="1" fill="#825F00" />
<rect x="23" y="12" width="1" height="1" fill="#301001" />
<rect x="24" y="12" width="1" height="1" fill="#301001" />
<rect x="9" y="13" width="1" height="1" fill="#301001" />
<rect x="10" y="13" width="1" height="1" fill="#825F00" />
<rect x="11" y="13" width="1" height="1" fill="#825F00" />
<rect x="12" y="13" width="1" height="1" fill="#825F00" />
<rect x="13" y="13" width="1" height="1" fill="#301001" />
<rect x="14" y="13" width="1" height="1" fill="#301001" />
<rect x="19" y="13" width="1" height="1" fill="#301001" />
<rect x="20" y="13" width="1" height="1" fill="#301001" />
<rect x="21" y="13" width="1" height="1" fill="#825F00" />
<rect x="22" y="13" width="1" height="1" fill="#825F00" />
<rect x="23" y="13" width="1" height="1" fill="#301001" />
<rect x="24" y="13" width="1" height="1" fill="#301001" />
<rect x="9" y="14" width="1" height="1" fill="#301001" />
<rect x="10" y="14" width="1" height="1" fill="#301001" />
<rect x="11" y="14" width="1" height="1" fill="#825F00" />
<rect x="12" y="14" width="1" height="1" fill="#825F00" />
<rect x="13" y="14" width="1" height="1" fill="#825F00" />
<rect x="14" y="14" width="1" height="1" fill="#825F00" />
<rect x="15" y="14" width="1" height="1" fill="#301001" />
<rect x="16" y="14" width="1" height="1" fill="#301001" />
<rect x="17" y="14" width="1" height="1" fill="#301001" />
<rect x="18" y="14" width="1" height="1" fill="#301001" />
<rect x="19" y="14" width="1" height="1" fill="#825F00" />
<rect x="20" y="14" width="1" height="1" fill="#825F00" />
<rect x="21" y="14" width="1" height="1" fill="#825F00" />
<rect x="22" y="14" width="1" height="1" fill="#301001" />
<rect x="23" y="14" width="1" height="1" fill="#301001" />
<rect x="10" y="15" width="1" height="1" fill="#301001" />
<rect x="11" y="15" width="1" height="1" fill="#825F00" />
<rect x="12" y="15" width="1" height="1" fill="#825F00" />
<rect x="13" y="15" width="1" height="1" fill="#825F00" />
<rect x="14" y="15" width="1" height="1" fill="#825F00" />
<rect x="15" y="15" width="1" height="1" fill="#825F00" />
<rect x="16" y="15" width="1" height="1" fill="#825F00" />
<rect x="17" y="15" width="1" height="1" fill="#825F00" />
<rect x="18" y="15" width="1" height="1" fill="#825F00" />
<rect x="19" y="15" width="1" height="1" fill="#825F00" />
<rect x="20" y="15" width="1" height="1" fill="#5B4407" />
<rect x="21" y="15" width="1" height="1" fill="#5B4407" />
<rect x="22" y="15" width="1" height="1" fill="#301001" />
<rect x="10" y="16" width="1" height="1" fill="#301001" />
<rect x="11" y="16" width="1" height="1" fill="#301001" />
<rect x="12" y="16" width="1" height="1" fill="#5B4407" />
<rect x="13" y="16" width="1" height="1" fill="#825F00" />
<rect x="14" y="16" width="1" height="1" fill="#825F00" />
<rect x="15" y="16" width="1" height="1" fill="#825F00" />
<rect x="16" y="16" width="1" height="1" fill="#825F00" />
<rect x="17" y="16" width="1" height="1" fill="#825F00" />
<rect x="18" y="16" width="1" height="1" fill="#5B4407" />
<rect x="19" y="16" width="1" height="1" fill="#5B4407" />
<rect x="20" y="16" width="1" height="1" fill="#301001" />
<rect x="21" y="16" width="1" height="1" fill="#301001" />
<rect x="22" y="16" width="1" height="1" fill="#301001" />
<rect x="11" y="17" width="1" height="1" fill="#301001" />
<rect x="12" y="17" width="1" height="1" fill="#301001" />
<rect x="13" y="17" width="1" height="1" fill="#5B4407" />
<rect x="14" y="17" width="1" height="1" fill="#5B4407" />
<rect x="15" y="17" width="1" height="1" fill="#5B4407" />
<rect x="16" y="17" width="1" height="1" fill="#5B4407" />
<rect x="17" y="17" width="1" height="1" fill="#5B4407" />
<rect x="18" y="17" width="1" height="1" fill="#5B4407" />
<rect x="19" y="17" width="1" height="1" fill="#301001" />
<rect x="20" y="17" width="1" height="1" fill="#301001" />
<rect x="12" y="18" width="1" height="1" fill="#301001" />
<rect x="13" y="18" width="1" height="1" fill="#301001" />
<rect x="14" y="18" width="1" height="1" fill="#5B4407" />
<rect x="15" y="18" width="1" height="1" fill="#5B4407" />
<rect x="16" y="18" width="1" height="1" fill="#301001" />
<rect x="17" y="18" width="1" height="1" fill="#301001" />
<rect x="18" y="18" width="1" height="1" fill="#301001" />
<rect x="19" y="18" width="1" height="1" fill="#301001" />
<rect x="14" y="19" width="1" height="1" fill="#301001" />
<rect x="15" y="19" width="1" height="1" fill="#301001" />
<rect x="16" y="19" width="1" height="1" fill="#301001" />
</svg>